<svg width="146" height="178" viewBox="0 0 146 178" fill="none" xmlns="http://www.w3.org/2000/svg">
<rect x="0.5" y="0.5" width="145" height="177" rx="9.5" fill="#F6F6F6"/>
<rect x="0.5" y="0.5" width="145" height="177" rx="9.5" stroke="black" stroke-dasharray="4 4"/>
<path d="M72.041 85.7915H74.9577V79.9582H80.791V77.0415H74.9577V71.2082H72.041V77.0415H66.2077V79.9582H72.041V85.7915ZM73.4993 93.0832C71.482 93.0832 69.5862 92.7064 67.8118 91.953C66.0375 91.1752 64.4941 90.13 63.1816 88.8175C61.8691 87.505 60.824 85.9616 60.0462 84.1873C59.2928 82.413 58.916 80.5172 58.916 78.4998C58.916 76.4825 59.2928 74.5866 60.0462 72.8123C60.824 71.038 61.8691 69.4946 63.1816 68.1821C64.4941 66.8696 66.0375 65.8366 67.8118 65.0832C69.5862 64.3054 71.482 63.9165 73.4993 63.9165C75.5167 63.9165 77.4125 64.3054 79.1868 65.0832C80.9612 65.8366 82.5046 66.8696 83.8171 68.1821C85.1296 69.4946 86.1625 71.038 86.916 72.8123C87.6938 74.5866 88.0827 76.4825 88.0827 78.4998C88.0827 80.5172 87.6938 82.413 86.916 84.1873C86.1625 85.9616 85.1296 87.505 83.8171 88.8175C82.5046 90.13 80.9612 91.1752 79.1868 91.953C77.4125 92.7064 75.5167 93.0832 73.4993 93.0832ZM73.4993 90.1665C76.7563 90.1665 79.515 89.0363 81.7754 86.7759C84.0358 84.5155 85.166 81.7568 85.166 78.4998C85.166 75.2429 84.0358 72.4842 81.7754 70.2238C79.515 67.9634 76.7563 66.8332 73.4993 66.8332C70.2424 66.8332 67.4837 67.9634 65.2233 70.2238C62.9629 72.4842 61.8327 75.2429 61.8327 78.4998C61.8327 81.7568 62.9629 84.5155 65.2233 86.7759C67.4837 89.0363 70.2424 90.1665 73.4993 90.1665Z" fill="#81909F"/>
<path d="M37.696 114H36.2983L39.4389 105.273H40.9602L44.1009 114H42.7031L40.2358 106.858H40.1676L37.696 114ZM37.9304 110.582H42.4645V111.69H37.9304V110.582ZM47.6037 114.128C47.0753 114.128 46.6037 113.993 46.1889 113.723C45.777 113.45 45.4531 113.062 45.2173 112.56C44.9844 112.054 44.8679 111.447 44.8679 110.74C44.8679 110.033 44.9858 109.428 45.2216 108.925C45.4602 108.422 45.7869 108.037 46.2017 107.77C46.6165 107.503 47.0866 107.369 47.6122 107.369C48.0185 107.369 48.3452 107.438 48.5923 107.574C48.8423 107.707 49.0355 107.864 49.1719 108.043C49.3111 108.222 49.419 108.379 49.4957 108.516H49.5724V105.273H50.8466V114H49.6023V112.982H49.4957C49.419 113.121 49.3082 113.28 49.1634 113.459C49.0213 113.638 48.8253 113.794 48.5753 113.928C48.3253 114.061 48.0014 114.128 47.6037 114.128ZM47.8849 113.041C48.2514 113.041 48.5611 112.945 48.8139 112.751C49.0696 112.555 49.2628 112.284 49.3935 111.938C49.527 111.591 49.5938 111.187 49.5938 110.727C49.5938 110.273 49.5284 109.875 49.3977 109.534C49.267 109.193 49.0753 108.928 48.8224 108.737C48.5696 108.547 48.2571 108.452 47.8849 108.452C47.5014 108.452 47.1818 108.551 46.9261 108.75C46.6705 108.949 46.4773 109.22 46.3466 109.564C46.2188 109.908 46.1548 110.295 46.1548 110.727C46.1548 111.165 46.2202 111.558 46.3509 111.908C46.4815 112.257 46.6747 112.534 46.9304 112.739C47.1889 112.94 47.5071 113.041 47.8849 113.041ZM55.1154 114.128C54.587 114.128 54.1154 113.993 53.7006 113.723C53.2887 113.45 52.9648 113.062 52.729 112.56C52.4961 112.054 52.3796 111.447 52.3796 110.74C52.3796 110.033 52.4975 109.428 52.7333 108.925C52.9719 108.422 53.2987 108.037 53.7134 107.77C54.1282 107.503 54.5984 107.369 55.1239 107.369C55.5302 107.369 55.8569 107.438 56.104 107.574C56.354 107.707 56.5472 107.864 56.6836 108.043C56.8228 108.222 56.9308 108.379 57.0075 108.516H57.0842V105.273H58.3583V114H57.114V112.982H57.0075C56.9308 113.121 56.82 113.28 56.6751 113.459C56.533 113.638 56.337 113.794 56.087 113.928C55.837 114.061 55.5131 114.128 55.1154 114.128ZM55.3967 113.041C55.7631 113.041 56.0728 112.945 56.3256 112.751C56.5813 112.555 56.7745 112.284 56.9052 111.938C57.0387 111.591 57.1055 111.187 57.1055 110.727C57.1055 110.273 57.0401 109.875 56.9094 109.534C56.7788 109.193 56.587 108.928 56.3342 108.737C56.0813 108.547 55.7688 108.452 55.3967 108.452C55.0131 108.452 54.6935 108.551 54.4379 108.75C54.1822 108.949 53.989 109.22 53.8583 109.564C53.7305 109.908 53.6665 110.295 53.6665 110.727C53.6665 111.165 53.7319 111.558 53.8626 111.908C53.9933 112.257 54.1864 112.534 54.4421 112.739C54.7006 112.94 55.0188 113.041 55.3967 113.041ZM64.1921 114H62.7944L65.935 105.273H67.4563L70.5969 114H69.1992L66.7319 106.858H66.6637L64.1921 114ZM64.4265 110.582H68.9606V111.69H64.4265V110.582ZM74.0998 114.128C73.5714 114.128 73.0998 113.993 72.685 113.723C72.2731 113.45 71.9492 113.062 71.7134 112.56C71.4805 112.054 71.364 111.447 71.364 110.74C71.364 110.033 71.4819 109.428 71.7177 108.925C71.9563 108.422 72.283 108.037 72.6978 107.77C73.1126 107.503 73.5827 107.369 74.1083 107.369C74.5146 107.369 74.8413 107.438 75.0884 107.574C75.3384 107.707 75.5316 107.864 75.668 108.043C75.8072 108.222 75.9151 108.379 75.9918 108.516H76.0685V105.273H77.3427V114H76.0984V112.982H75.9918C75.9151 113.121 75.8043 113.28 75.6594 113.459C75.5174 113.638 75.3214 113.794 75.0714 113.928C74.8214 114.061 74.4975 114.128 74.0998 114.128ZM74.381 113.041C74.7475 113.041 75.0572 112.945 75.31 112.751C75.5657 112.555 75.7589 112.284 75.8896 111.938C76.0231 111.591 76.0898 111.187 76.0898 110.727C76.0898 110.273 76.0245 109.875 75.8938 109.534C75.7631 109.193 75.5714 108.928 75.3185 108.737C75.0657 108.547 74.7532 108.452 74.381 108.452C73.9975 108.452 73.6779 108.551 73.4222 108.75C73.1665 108.949 72.9734 109.22 72.8427 109.564C72.7148 109.908 72.6509 110.295 72.6509 110.727C72.6509 111.165 72.7163 111.558 72.8469 111.908C72.9776 112.257 73.1708 112.534 73.4265 112.739C73.685 112.94 74.0032 113.041 74.381 113.041ZM81.6115 114.128C81.0831 114.128 80.6115 113.993 80.1967 113.723C79.7848 113.45 79.4609 113.062 79.2251 112.56C78.9922 112.054 78.8757 111.447 78.8757 110.74C78.8757 110.033 78.9936 109.428 79.2294 108.925C79.468 108.422 79.7947 108.037 80.2095 107.77C80.6243 107.503 81.0945 107.369 81.62 107.369C82.0263 107.369 82.353 107.438 82.6001 107.574C82.8501 107.707 83.0433 107.864 83.1797 108.043C83.3189 108.222 83.4268 108.379 83.5036 108.516H83.5803V105.273H84.8544V114H83.6101V112.982H83.5036C83.4268 113.121 83.3161 113.28 83.1712 113.459C83.0291 113.638 82.8331 113.794 82.5831 113.928C82.3331 114.061 82.0092 114.128 81.6115 114.128ZM81.8928 113.041C82.2592 113.041 82.5689 112.945 82.8217 112.751C83.0774 112.555 83.2706 112.284 83.4013 111.938C83.5348 111.591 83.6016 111.187 83.6016 110.727C83.6016 110.273 83.5362 109.875 83.4055 109.534C83.2749 109.193 83.0831 108.928 82.8303 108.737C82.5774 108.547 82.2649 108.452 81.8928 108.452C81.5092 108.452 81.1896 108.551 80.9339 108.75C80.6783 108.949 80.4851 109.22 80.3544 109.564C80.2266 109.908 80.1626 110.295 80.1626 110.727C80.1626 111.165 80.228 111.558 80.3587 111.908C80.4893 112.257 80.6825 112.534 80.9382 112.739C81.1967 112.94 81.5149 113.041 81.8928 113.041ZM86.6729 114V107.455H87.9045V108.494H87.9727C88.092 108.142 88.3022 107.865 88.6033 107.663C88.9073 107.459 89.2511 107.357 89.6346 107.357C89.7141 107.357 89.8079 107.359 89.9158 107.365C90.0266 107.371 90.1133 107.378 90.1758 107.386V108.605C90.1246 108.591 90.0337 108.575 89.9031 108.558C89.7724 108.538 89.6417 108.528 89.511 108.528C89.2099 108.528 88.9414 108.592 88.7056 108.72C88.4727 108.845 88.288 109.02 88.1516 109.244C88.0153 109.466 87.9471 109.719 87.9471 110.003V114H86.6729ZM93.8651 114.132C93.2202 114.132 92.6648 113.994 92.1989 113.719C91.7358 113.44 91.3778 113.05 91.125 112.547C90.875 112.041 90.75 111.449 90.75 110.77C90.75 110.099 90.875 109.509 91.125 108.997C91.3778 108.486 91.7301 108.087 92.1818 107.8C92.6364 107.513 93.1676 107.369 93.7756 107.369C94.1449 107.369 94.5028 107.43 94.8494 107.553C95.196 107.675 95.5071 107.866 95.7827 108.128C96.0582 108.389 96.2756 108.729 96.4347 109.146C96.5938 109.561 96.6733 110.065 96.6733 110.659V111.111H91.4702V110.156H95.4247C95.4247 109.821 95.3565 109.524 95.2202 109.266C95.0838 109.004 94.892 108.798 94.6449 108.648C94.4006 108.497 94.1136 108.422 93.7841 108.422C93.4261 108.422 93.1136 108.51 92.8466 108.686C92.5824 108.859 92.3778 109.087 92.233 109.368C92.0909 109.646 92.0199 109.949 92.0199 110.276V111.021C92.0199 111.459 92.0966 111.831 92.25 112.138C92.4062 112.445 92.6236 112.679 92.902 112.841C93.1804 113 93.5057 113.08 93.8778 113.08C94.1193 113.08 94.3395 113.045 94.5384 112.977C94.7372 112.906 94.9091 112.801 95.054 112.662C95.1989 112.523 95.3097 112.351 95.3864 112.146L96.5923 112.364C96.4957 112.719 96.3224 113.03 96.0724 113.297C95.8253 113.561 95.5142 113.767 95.1392 113.915C94.767 114.06 94.3423 114.132 93.8651 114.132ZM102.992 109.053L101.837 109.257C101.789 109.109 101.712 108.969 101.607 108.835C101.505 108.702 101.365 108.592 101.189 108.507C101.013 108.422 100.793 108.379 100.529 108.379C100.168 108.379 99.8668 108.46 99.6254 108.622C99.3839 108.781 99.2631 108.987 99.2631 109.24C99.2631 109.459 99.3441 109.635 99.506 109.768C99.668 109.902 99.9293 110.011 100.29 110.097L101.33 110.335C101.932 110.474 102.381 110.689 102.676 110.979C102.972 111.268 103.12 111.645 103.12 112.108C103.12 112.5 103.006 112.849 102.779 113.156C102.554 113.46 102.24 113.699 101.837 113.872C101.436 114.045 100.972 114.132 100.444 114.132C99.7106 114.132 99.1126 113.976 98.6495 113.663C98.1864 113.348 97.9023 112.901 97.7972 112.321L99.0288 112.134C99.1055 112.455 99.2631 112.697 99.5018 112.862C99.7404 113.024 100.051 113.105 100.435 113.105C100.853 113.105 101.186 113.018 101.436 112.845C101.686 112.669 101.811 112.455 101.811 112.202C101.811 111.997 101.735 111.825 101.581 111.686C101.431 111.547 101.199 111.442 100.887 111.371L99.7788 111.128C99.168 110.989 98.7163 110.767 98.4237 110.463C98.1339 110.159 97.989 109.774 97.989 109.308C97.989 108.922 98.0969 108.584 98.3129 108.294C98.5288 108.004 98.8271 107.778 99.2077 107.616C99.5884 107.452 100.025 107.369 100.516 107.369C101.223 107.369 101.78 107.523 102.186 107.83C102.593 108.134 102.861 108.541 102.992 109.053ZM109.425 109.053L108.271 109.257C108.222 109.109 108.146 108.969 108.04 108.835C107.938 108.702 107.799 108.592 107.623 108.507C107.447 108.422 107.227 108.379 106.962 108.379C106.602 108.379 106.3 108.46 106.059 108.622C105.817 108.781 105.697 108.987 105.697 109.24C105.697 109.459 105.778 109.635 105.94 109.768C106.102 109.902 106.363 110.011 106.724 110.097L107.763 110.335C108.366 110.474 108.815 110.689 109.11 110.979C109.406 111.268 109.553 111.645 109.553 112.108C109.553 112.5 109.44 112.849 109.212 113.156C108.988 113.46 108.674 113.699 108.271 113.872C107.87 114.045 107.406 114.132 106.877 114.132C106.144 114.132 105.546 113.976 105.083 113.663C104.62 113.348 104.336 112.901 104.231 112.321L105.462 112.134C105.539 112.455 105.697 112.697 105.935 112.862C106.174 113.024 106.485 113.105 106.869 113.105C107.286 113.105 107.62 113.018 107.87 112.845C108.12 112.669 108.245 112.455 108.245 112.202C108.245 111.997 108.168 111.825 108.015 111.686C107.864 111.547 107.633 111.442 107.32 111.371L106.212 111.128C105.602 110.989 105.15 110.767 104.857 110.463C104.567 110.159 104.423 109.774 104.423 109.308C104.423 108.922 104.531 108.584 104.746 108.294C104.962 108.004 105.261 107.778 105.641 107.616C106.022 107.452 106.458 107.369 106.95 107.369C107.657 107.369 108.214 107.523 108.62 107.83C109.026 108.134 109.295 108.541 109.425 109.053Z" fill="#81909F"/>
</svg>
