<svg width="80" height="24" viewBox="0 0 80 24" fill="none" xmlns="http://www.w3.org/2000/svg">
<rect x="0.5" y="0.5" width="34" height="23" rx="3.5" fill="white" stroke="#D9D9D9"/>
<path fill-rule="evenodd" clip-rule="evenodd" d="M10.6253 16.2582H8.50494L6.91495 10.1924C6.83949 9.91334 6.67925 9.66667 6.44354 9.5504C5.85531 9.25823 5.20712 9.0257 4.5 8.90843V8.6749H7.91567C8.38708 8.6749 8.74064 9.0257 8.79957 9.43313L9.62454 13.8086L11.7438 8.6749H13.8052L10.6253 16.2582ZM14.9838 16.2582H12.9813L14.6302 8.6749H16.6327L14.9838 16.2582ZM19.2234 10.7757C19.2823 10.3673 19.6359 10.1337 20.0483 10.1337C20.6965 10.0751 21.4026 10.1924 21.9919 10.4835L22.3454 8.85081C21.7562 8.61727 21.108 8.5 20.5198 8.5C18.5762 8.5 17.162 9.55041 17.162 11.0082C17.162 12.1173 18.1637 12.6996 18.8708 13.0504C19.6359 13.4002 19.9305 13.6338 19.8716 13.9835C19.8716 14.5082 19.2823 14.7418 18.6941 14.7418C17.9869 14.7418 17.2798 14.5669 16.6327 14.2747L16.2791 15.9085C16.9862 16.1996 17.7512 16.3169 18.4584 16.3169C20.6376 16.3745 21.9919 15.3251 21.9919 13.75C21.9919 11.7665 19.2234 11.6502 19.2234 10.7757V10.7757ZM29 16.2582L27.41 8.6749H25.7022C25.3486 8.6749 24.9951 8.90843 24.8772 9.25823L21.9329 16.2582H23.9943L24.4058 15.1502H26.9386L27.1743 16.2582H29ZM25.9968 10.7171L26.585 13.5751H24.9361L25.9968 10.7171Z" fill="#172B85"/>
<rect x="45.5" y="0.5" width="34" height="23" rx="3.5" fill="white" stroke="#D9D9D9"/>
<path fill-rule="evenodd" clip-rule="evenodd" d="M62.75 17.1569C61.5584 18.1852 60.0128 18.806 58.3238 18.806C54.5551 18.806 51.5 15.7154 51.5 11.903C51.5 8.09057 54.5551 5 58.3238 5C60.0128 5 61.5584 5.62075 62.75 6.64903C63.9416 5.62075 65.4872 5 67.1762 5C70.9449 5 74 8.09057 74 11.903C74 15.7154 70.9449 18.806 67.1762 18.806C65.4872 18.806 63.9416 18.1852 62.75 17.1569Z" fill="#ED0006"/>
<path fill-rule="evenodd" clip-rule="evenodd" d="M62.75 17.1569C64.2172 15.8908 65.1475 14.0068 65.1475 11.903C65.1475 9.79917 64.2172 7.91517 62.75 6.64903C63.9416 5.62075 65.4872 5 67.1762 5C70.9449 5 74 8.09057 74 11.903C74 15.7154 70.9449 18.806 67.1762 18.806C65.4872 18.806 63.9416 18.1852 62.75 17.1569Z" fill="#F9A000"/>
<path fill-rule="evenodd" clip-rule="evenodd" d="M62.75 6.64917C64.2172 7.9153 65.1476 9.79929 65.1476 11.9031C65.1476 14.0069 64.2172 15.8909 62.75 17.157C61.2829 15.8909 60.3525 14.0069 60.3525 11.9031C60.3525 9.79929 61.2829 7.9153 62.75 6.64917Z" fill="#FF5E00"/>
</svg>
