<svg width="478" height="466" viewBox="0 0 478 466" fill="none" xmlns="http://www.w3.org/2000/svg">
<path d="M240.712 0.170205C121.434 -3.45204 18.1138 85.5517 2.50387 202.336C-14.5632 330.023 79.372 444.911 194.955 463.312C338.722 486.2 478.167 353.791 465.646 210.148C456.213 101.925 361.96 3.85205 240.712 0.170205Z" fill="#F4F7FA"/>
<mask id="mask0_95_6510" style="mask-type:luminance" maskUnits="userSpaceOnUse" x="39" y="0" width="277" height="218">
<path d="M81.8058 105.983C96.3038 77.6375 117.836 43.9634 136.908 77.82C155.98 111.677 208.634 79.4646 225.451 30.3131C241.907 -17.7851 336.903 -16.2863 310.844 91.0867C295.281 155.21 231.045 158.076 198.951 167.235C166.856 176.394 173.556 225.467 130.46 216.573C93.6483 208.975 63.5889 186.817 44.1549 211.931C24.721 237.046 72.1923 124.778 81.8058 105.983Z" fill="white"/>
</mask>
<g mask="url(#mask0_95_6510)">
<path d="M225.45 30.3132C208.633 79.4646 161.66 111.93 136.908 81.9751C115.03 55.5003 96.3035 77.6374 81.8055 105.983C73.2157 122.776 59.6164 162.281 19.6015 154.604C19.6411 155.254 19.572 155.931 19.3769 156.641C18.2965 182.21 16.2904 207.728 14.9609 233.284C26.1911 230.265 35.7703 222.767 44.1542 211.931C63.5883 186.817 93.6476 208.975 130.459 216.573C173.555 225.467 166.855 176.394 198.95 167.235C231.044 158.076 295.281 155.21 310.843 91.0867C336.902 -16.2864 241.907 -17.7851 225.45 30.3132Z" fill="url(#paint0_linear_95_6510)"/>
</g>
<mask id="mask1_95_6510" style="mask-type:luminance" maskUnits="userSpaceOnUse" x="39" y="0" width="277" height="218">
<path d="M81.8058 105.983C96.3038 77.6375 117.836 43.9634 136.908 77.82C155.98 111.677 208.634 79.4646 225.451 30.3131C241.907 -17.7851 336.903 -16.2863 310.844 91.0867C295.281 155.21 231.045 158.076 198.951 167.235C166.856 176.394 173.556 225.467 130.46 216.573C93.6483 208.975 63.5889 186.817 44.1549 211.931C24.721 237.046 72.1923 124.778 81.8058 105.983Z" fill="white"/>
</mask>
<g mask="url(#mask1_95_6510)">
<g opacity="0.5">
<path d="M282.328 -14.6982C282.193 90.2642 191.888 140.86 116.155 164.82C81.4673 175.795 46.5915 182.34 17.7996 186.24C17.7719 186.695 17.7455 187.15 17.7178 187.605C46.619 183.701 81.669 177.138 116.534 166.109C164.967 150.788 203.577 129.976 231.293 104.251C265.989 72.0471 283.611 32.0275 283.671 -14.6969L282.328 -14.6982Z" fill="#BEB8F2"/>
<path d="M216.213 117.082L216.123 115.742C260.716 112.732 319.358 84.1669 319.945 83.8789L320.537 85.0841C319.947 85.3733 261.068 114.054 216.213 117.082Z" fill="#BEB8F2"/>
<path d="M238.743 94.9909C257.8 45.2567 236.504 6.36075 236.287 5.97409L237.457 5.31641C237.679 5.70901 259.288 45.1273 239.997 95.4713L238.743 94.9909Z" fill="#BEB8F2"/>
<path d="M61.4854 178.896C120.789 152.121 119.665 64.6301 119.582 63.7787L120.906 63.5625C121.066 64.3905 121.868 153.107 62.0377 180.12L61.4854 178.896Z" fill="#BEB8F2"/>
<path d="M87.9023 174.204L87.9212 172.86C129.438 173.434 165.281 211.408 165.639 211.792L164.656 212.707C164.302 212.327 128.84 174.768 87.9023 174.204Z" fill="#BEB8F2"/>
<path d="M37.5311 222.288C33.5223 218.595 25.757 211.443 16.6405 204.821C16.6074 205.349 16.5741 205.876 16.541 206.403C25.2894 212.838 32.7381 219.699 36.6214 223.276C38.3417 224.861 39.0527 225.512 39.3722 225.702L40.0579 224.547C39.8334 224.409 38.7669 223.427 37.5311 222.288Z" fill="#BEB8F2"/>
</g>
</g>
<path d="M212.068 149.49C202.388 138.841 188.466 139.825 178.504 142.116C178.023 143.412 177.416 144.036 176.643 145.232C169.672 156.031 168.998 162.124 163.807 173.852C162.69 176.377 161.664 184.785 161.465 188.247L161.197 194.707C161.197 194.707 186.312 216.304 200.103 203.453C213.894 190.602 240.349 208.088 255.505 215.624C264.812 220.251 270.551 219.386 274.244 220.538C313.334 232.726 320.308 248.532 335.454 244.686C352.175 240.441 348.462 219.965 366.407 214.386C386.67 208.087 405.009 229.967 422.853 219.721C425.912 217.965 429.008 216.076 431.841 212.319C438.834 203.045 435.957 192.279 447.344 188.078C470.234 179.633 485.49 157.263 473.061 135.407C460.794 113.836 419.318 117.724 375.107 150.706C340.991 170.577 333.793 168.249 317.504 159.172C306.095 152.815 279.372 128.02 260.456 140.757C241.539 153.493 223.134 161.665 212.068 149.49Z" fill="url(#paint1_linear_95_6510)"/>
<mask id="mask2_95_6510" style="mask-type:luminance" maskUnits="userSpaceOnUse" x="160" y="121" width="318" height="102">
<path d="M166.001 145.966L160.502 193.326C160.502 193.326 186.312 216.304 200.103 203.453C213.894 190.602 240.349 208.088 255.505 215.623C296.628 236.071 310.911 184.74 365.824 206.418C380.43 212.184 406.357 228.481 422.853 219.721C441.648 209.741 432.7 193.481 447.345 188.078C470.234 179.633 485.49 157.263 473.061 135.407C460.794 113.836 419.319 117.724 375.107 150.706C340.992 170.577 333.793 168.248 317.504 159.172C306.095 152.815 279.372 128.02 260.456 140.756C241.539 153.493 223.135 161.664 212.069 149.491C195.23 130.966 166.001 145.966 166.001 145.966Z" fill="white"/>
</mask>
<g mask="url(#mask2_95_6510)">
<g opacity="0.5">
<path d="M165.645 167.402L165.426 168.322C170.491 169.58 175.614 170.78 180.655 171.891C217.979 180.111 254.759 184.268 289.976 184.244C319.817 184.224 348.954 181.211 376.58 175.287C398.796 170.523 420.16 163.859 440.078 155.481C454.079 149.592 467.227 142.922 479.156 135.657C481.235 134.391 483.298 132.974 485.293 131.603C487.952 129.776 490.701 127.888 493.508 126.344L493.125 125.507C490.279 127.071 487.511 128.973 484.835 130.812C482.849 132.176 480.796 133.586 478.738 134.839C466.848 142.081 453.739 148.731 439.777 154.604C419.909 162.962 398.596 169.609 376.43 174.362C348.862 180.274 319.782 183.281 289.999 183.301C254.842 183.324 218.12 179.174 180.854 170.967C175.82 169.858 170.703 168.659 165.645 167.402Z" fill="#FCFDFE"/>
<path d="M342.585 180.083L342.639 181.023C380.247 177.423 433.684 214.816 434.219 215.194L434.715 214.402C434.177 214.022 380.494 176.455 342.585 180.083Z" fill="#FCFDFE"/>
<path d="M236.809 180.261L236.761 181.204C262.505 181.965 296.896 142.693 297.24 142.296L296.606 141.662C296.264 142.056 262.15 181.01 236.809 180.261Z" fill="#FCFDFE"/>
<path d="M222.27 178.47L222.068 179.393C238.447 183.08 258.714 197.567 279.135 220.187C280.162 221.324 280.162 221.324 280.323 221.363L280.536 220.442L280.43 220.903L280.687 220.515C280.61 220.448 280.222 220.019 279.773 219.52C259.235 196.772 238.814 182.193 222.27 178.47Z" fill="#FCFDFE"/>
<path d="M174.922 169.556L174.973 170.496C193.479 168.806 209.461 144.311 209.62 144.064L208.903 143.541C208.746 143.785 193.004 167.904 174.922 169.556Z" fill="#FCFDFE"/>
<path d="M165.094 168.717C177.433 177.424 187.753 190.291 196.643 208.055L197.419 207.591C188.46 189.691 178.048 176.716 165.589 167.924L165.094 168.717Z" fill="#FCFDFE"/>
<path d="M427.977 159.333L428.08 160.267C448.917 157.016 471.379 158.773 478.76 159.35C480.546 159.49 481.176 159.537 481.398 159.512L481.331 158.574C481.161 158.59 480.14 158.51 478.847 158.409C471.442 157.83 448.909 156.068 427.977 159.333Z" fill="#FCFDFE"/>
<path d="M394.69 169.986L395.046 170.838C413.038 161.762 427.098 121.874 427.688 120.18L426.867 119.871C426.723 120.282 412.347 161.08 394.69 169.986Z" fill="#FCFDFE"/>
</g>
</g>
<path d="M451.745 40.2476C436.336 -13.6471 353.545 14.8223 320.489 69.4686C310.899 85.3221 302.96 93.3534 295.854 96.6015C274.373 104.819 259.496 114.957 249.883 122.696C221.996 145.143 216.858 164.726 190.701 179.174C174.179 188.3 157.887 190.618 146.886 191.179C147.144 193.581 147.103 196.076 146.692 198.659C145.958 203.267 145.225 207.876 144.491 212.484C154.001 218.435 164.066 222.281 170.723 209.166C181.06 188.798 217.056 195.826 228.594 204.434C242.873 215.087 276.611 239.166 293.057 207.94C306.75 181.945 310.593 162.252 344.63 167.392C378.668 172.533 403.478 157.46 407.808 124.653C412.365 90.1281 460.588 71.1782 451.745 40.2476Z" fill="url(#paint2_linear_95_6510)"/>
<mask id="mask3_95_6510" style="mask-type:luminance" maskUnits="userSpaceOnUse" x="136" y="11" width="317" height="213">
<path d="M136.908 208.255C146.019 214.59 163.287 223.816 170.723 209.166C181.061 188.798 217.056 195.826 228.594 204.433C242.874 215.087 276.611 239.165 293.058 207.94C306.75 181.944 310.593 162.252 344.631 167.392C378.669 172.532 403.478 157.459 407.809 124.652C412.365 90.1282 460.588 71.1786 451.745 40.2478C436.336 -13.6472 353.546 14.8222 320.489 69.4686C287.433 124.115 136.908 208.255 136.908 208.255Z" fill="white"/>
</mask>
<g mask="url(#mask3_95_6510)">
<g opacity="0.5">
<path d="M311.354 133.089C285.055 146.12 257.357 156.057 228.992 162.497C227.087 163.495 225.169 164.468 223.239 165.419C254.706 158.844 285.432 147.989 314.42 133.369C313.398 133.257 312.376 133.163 311.354 133.089Z" fill="#FCFDFE"/>
<path d="M448.53 17.8516C417.016 61.262 376.008 97.155 329.866 123.272C330.182 123.592 330.507 123.905 330.819 124.229C330.872 124.283 330.95 124.363 331.041 124.456C377.193 98.2496 418.209 62.2973 449.756 18.8439L448.53 17.8516Z" fill="#FCFDFE"/>
<path d="M221.651 166.199C220.885 166.57 220.116 166.934 219.347 167.298C261.417 177.56 286.771 222.363 287.028 222.824L288.364 221.982C288.109 221.523 263.209 177.497 221.651 166.199Z" fill="#FCFDFE"/>
<path d="M241.041 75.8712C241.588 73.9696 241.874 72.8689 241.897 72.7758L240.402 72.3613C240.377 72.4585 240.063 73.6663 239.467 75.7287C239.992 75.7728 240.516 75.8189 241.041 75.8712Z" fill="#FCFDFE"/>
<path d="M332.622 126.123C333.059 126.6 333.542 127.14 334.043 127.727C366.795 127.284 403.156 153.414 403.562 153.709L404.447 152.355C404.031 152.052 366.266 124.911 332.622 126.123Z" fill="#FCFDFE"/>
<path d="M383.616 86.6419L384.747 87.7528C412.614 55.9536 411.802 -2.3832 411.79 -2.96973L410.241 -2.9215C410.254 -2.34244 411.049 55.3386 383.616 86.6419Z" fill="#FCFDFE"/>
</g>
</g>
<path d="M421.302 395.787L36.1724 430.553C30.4234 431.022 22.1748 423.419 22.1748 417.651V126.059C22.1748 120.661 26.5113 116.264 31.9089 116.189L420.362 110.817C425.867 110.741 436.271 114.799 436.271 120.304L430.37 385.949C430.37 391.089 426.425 395.369 421.302 395.787Z" fill="url(#paint3_linear_95_6510)"/>
<path d="M429.125 398.483L40.6715 430.185C34.9226 430.654 29.998 426.115 29.998 420.347V128.755C29.998 123.357 34.3345 118.96 39.7321 118.886L428.186 113.514C433.69 113.438 438.193 117.878 438.193 123.383V388.645C438.193 393.785 434.248 398.065 429.125 398.483Z" fill="url(#paint4_linear_95_6510)"/>
<path d="M74.9945 418.352L404.026 392.151C409.279 391.733 413.328 387.348 413.328 382.079V130.408C413.328 124.767 408.709 120.218 403.068 120.305L74.0375 125.356C68.5179 125.441 64.0879 129.94 64.0879 135.46V408.279C64.0879 414.176 69.1163 418.82 74.9945 418.352Z" fill="url(#paint5_linear_95_6510)"/>
<path d="M427.071 264.655C425.17 264.655 423.63 263.114 423.63 261.214V235.704C423.63 233.804 425.171 232.264 427.071 232.264C428.971 232.264 430.512 233.804 430.512 235.704V261.214C430.512 263.114 428.971 264.655 427.071 264.655Z" fill="url(#paint6_linear_95_6510)"/>
<path opacity="0.9" d="M355.24 336.078C325.274 309.94 301.252 320.165 269.553 293.607C230.205 260.641 249.797 230.242 215.159 201.213C171.844 164.913 119.505 194.357 87 157.997C78.493 148.481 73.757 137.15 71.2706 125.793C67.1109 127.049 64.0879 130.903 64.0879 135.46V408.28C64.0879 414.176 69.1163 418.821 74.9945 418.352L390.067 393.263C384.307 373.713 374.047 352.482 355.24 336.078Z" fill="white"/>
<g opacity="0.3">
<path d="M367.472 253.359L111.501 262.995C107.16 263.158 103.634 260.017 103.634 255.982V238.854C103.634 234.842 107.146 231.49 111.469 231.365L366.464 224.007C370.187 223.899 373.306 226.816 373.436 230.525L373.994 246.352C374.125 250.08 371.209 253.218 367.472 253.359Z" fill="#97A6B7"/>
<path d="M121.821 269.057L145.029 353.919C146.507 359.327 151.725 362.846 157.667 362.453L330.064 351.054C335.426 350.699 339.976 346.744 341.114 341.469L358.731 259.713L121.821 269.057ZM187.58 346.607C187.616 350.022 184.759 352.977 181.193 353.205L175.023 353.6C171.437 353.829 168.5 351.229 168.471 347.795L167.918 281.474C167.89 278.101 170.752 275.248 174.303 275.1L180.412 274.845C183.943 274.698 186.831 277.296 186.868 280.65L187.58 346.607ZM221.578 344.492C221.63 347.874 218.84 350.798 215.342 351.021L209.291 351.408C205.774 351.633 202.882 349.058 202.838 345.658L202 279.993C201.958 276.653 204.753 273.829 208.236 273.684L214.228 273.434C217.691 273.289 220.537 275.863 220.587 279.185L221.578 344.492ZM254.927 342.418C254.992 345.766 252.268 348.66 248.836 348.88L242.901 349.259C239.452 349.48 236.602 346.928 236.544 343.562L235.433 278.54C235.376 275.232 238.106 272.437 241.523 272.295L247.402 272.049C250.801 271.908 253.604 274.458 253.668 277.747L254.927 342.418ZM287.645 340.384C287.723 343.699 285.062 346.563 281.695 346.779L275.872 347.151C272.488 347.367 269.681 344.839 269.609 341.505L268.234 277.114C268.164 273.839 270.831 271.072 274.184 270.932L279.953 270.691C283.288 270.552 286.05 273.078 286.127 276.337L287.645 340.384ZM319.749 338.387C319.84 341.671 317.24 344.506 313.936 344.717L308.222 345.083C304.902 345.295 302.135 342.789 302.051 339.488L300.422 275.715C300.339 272.471 302.945 269.731 306.236 269.594L311.897 269.358C315.171 269.221 317.894 271.725 317.983 274.952L319.749 338.387Z" fill="#97A6B7"/>
<path d="M226.155 147.527C224.868 146.157 222.256 146.362 220.32 147.987L139.703 215.644C137.636 217.379 137.051 219.927 138.4 221.332C139.749 222.736 142.516 222.463 144.578 220.725L224.988 152.953C226.92 151.325 227.441 148.897 226.155 147.527Z" fill="#97A6B7"/>
<path d="M257.942 147.214C259.168 145.841 261.76 146.03 263.731 147.633L341.989 211.294C343.904 212.852 344.514 215.239 343.352 216.628C342.188 218.018 339.688 217.883 337.768 216.324L259.296 152.608C257.32 151.003 256.714 148.587 257.942 147.214Z" fill="#97A6B7"/>
</g>
<path d="M312.4 259.319C308.936 296.758 275.773 326.334 238.213 325.375C200.525 324.414 172.704 293.094 176.189 255.423C179.675 217.752 213.129 188.185 250.796 189.379C288.335 190.568 315.864 221.88 312.4 259.319Z" fill="url(#paint7_linear_95_6510)"/>
<path d="M245.18 300.4C221.454 300.4 202.151 281.097 202.151 257.37C202.151 233.644 221.454 214.342 245.18 214.342C268.907 214.342 288.209 233.644 288.209 257.37C288.209 281.097 268.907 300.4 245.18 300.4ZM245.18 230.169C230.181 230.169 217.979 242.372 217.979 257.37C217.979 272.369 230.181 284.572 245.18 284.572C260.179 284.572 272.382 272.369 272.382 257.37C272.382 242.371 260.179 230.169 245.18 230.169Z" fill="white"/>
<path d="M225.277 287.099C223.259 287.099 221.242 286.333 219.698 284.798C216.598 281.716 216.584 276.706 219.664 273.606L262.62 230.396C265.703 227.296 270.713 227.282 273.812 230.363C276.912 233.444 276.926 238.455 273.845 241.554L230.889 284.765C229.342 286.321 227.31 287.099 225.277 287.099Z" fill="white"/>
<g opacity="0.2">
<path d="M238.674 307.341C233.74 298.609 243.724 291.426 244.132 274.013C244.75 247.572 222.337 237.985 225.341 215.68C226.176 209.478 229.258 200.202 240.822 189.783C207.393 193.536 179.363 221.117 176.189 255.423C172.704 293.094 200.525 324.414 238.213 325.375C251.062 325.703 263.395 322.456 274.202 316.545C260.136 317.493 243.895 316.582 238.674 307.341Z" fill="url(#paint8_linear_95_6510)"/>
</g>
<path d="M369.229 411.363C331.545 410.966 329.577 413.726 329.294 414.993C327.995 420.811 353.271 435.124 380.12 437.502C396 438.908 409.101 435.777 435.303 429.515C452.774 425.34 461.51 423.252 461.442 420.802C461.25 413.875 397.3 411.659 369.229 411.363Z" fill="#D8DEE8"/>
<path d="M383.64 417.315C380.205 418.012 371.777 406.754 374.146 397.469C376.751 387.258 390.091 388.54 394.29 377.406C397.718 368.313 390.166 364.261 392.608 351.854C394.266 343.432 400.062 334.723 408.027 330.277C418.442 324.463 425.393 329.94 432.157 323.846C440.118 316.675 436.174 303.968 439.249 303.379C443.719 302.523 458.351 328.161 449.953 340.5C442.893 350.872 425.678 342.854 416.973 354.422C409.654 364.15 419.115 373.422 410.987 384.897C404.295 394.346 394.238 391.926 388.344 402.942C384.319 410.461 386.112 416.814 383.64 417.315Z" fill="url(#paint9_linear_95_6510)"/>
<mask id="mask4_95_6510" style="mask-type:luminance" maskUnits="userSpaceOnUse" x="373" y="303" width="80" height="115">
<path d="M383.64 417.315C380.205 418.012 371.777 406.754 374.146 397.469C376.751 387.258 390.091 388.54 394.29 377.406C397.718 368.313 390.166 364.261 392.608 351.854C394.266 343.432 400.062 334.723 408.027 330.277C418.442 324.463 425.393 329.94 432.157 323.846C440.118 316.675 436.174 303.968 439.249 303.379C443.719 302.523 458.351 328.161 449.953 340.5C442.893 350.872 425.678 342.854 416.973 354.422C409.654 364.15 419.115 373.422 410.987 384.897C404.295 394.346 394.238 391.926 388.344 402.942C384.319 410.461 386.112 416.814 383.64 417.315Z" fill="white"/>
</mask>
<g mask="url(#mask4_95_6510)">
<path opacity="0.5" d="M385.242 403.779L385.041 403.564C395.051 394.181 401.294 383.795 403.598 372.696C404.894 366.455 404.713 361.295 404.554 356.742C404.346 350.8 404.182 346.106 407.899 342.644C411.569 339.227 416.302 339.391 421.313 339.564C426.786 339.753 432.446 339.948 437.237 335.474C441.996 331.03 442.958 324.608 443.369 321.866C444.928 311.465 440.14 303.169 438.009 300.084L438.252 299.917C440.402 303.03 445.235 311.405 443.66 321.91C443.245 324.683 442.272 331.175 437.438 335.689C432.558 340.247 426.836 340.049 421.303 339.858C416.355 339.687 411.68 339.526 408.1 342.86C404.481 346.23 404.635 350.635 404.849 356.732C405.008 361.301 405.19 366.48 403.887 372.756C401.57 383.916 395.297 394.354 385.242 403.779Z" fill="white"/>
</g>
<mask id="mask5_95_6510" style="mask-type:luminance" maskUnits="userSpaceOnUse" x="373" y="303" width="80" height="115">
<path d="M383.64 417.315C380.205 418.012 371.777 406.754 374.146 397.469C376.751 387.258 390.091 388.54 394.29 377.406C397.718 368.313 390.166 364.261 392.608 351.854C394.266 343.432 400.062 334.723 408.027 330.277C418.442 324.463 425.393 329.94 432.157 323.846C440.118 316.675 436.174 303.968 439.249 303.379C443.719 302.523 458.351 328.161 449.953 340.5C442.893 350.872 425.678 342.854 416.973 354.422C409.654 364.15 419.115 373.422 410.987 384.897C404.295 394.346 394.238 391.926 388.344 402.942C384.319 410.461 386.112 416.814 383.64 417.315Z" fill="white"/>
</mask>
<g mask="url(#mask5_95_6510)">
<path opacity="0.5" d="M437.07 338.241C436.27 337.982 435.616 337.57 435.214 336.944C434.324 335.56 435.16 333.892 436.128 331.961C437.157 329.909 438.322 327.584 438.054 324.769C437.685 320.885 434.639 317.137 429 313.63L429.156 313.38C434.876 316.939 437.969 320.761 438.348 324.741C438.624 327.64 437.386 330.109 436.392 332.093C435.426 334.02 434.663 335.542 435.462 336.785C437.013 339.197 442.807 338.181 445.591 337.693C452.026 336.564 458.1 333.693 463.644 329.159L463.83 329.387C458.247 333.954 452.128 336.845 445.642 337.983C443.486 338.36 439.565 339.048 437.07 338.241Z" fill="white"/>
</g>
<mask id="mask6_95_6510" style="mask-type:luminance" maskUnits="userSpaceOnUse" x="373" y="303" width="80" height="115">
<path d="M383.64 417.315C380.205 418.012 371.777 406.754 374.146 397.469C376.751 387.258 390.091 388.54 394.29 377.406C397.718 368.313 390.166 364.261 392.608 351.854C394.266 343.432 400.062 334.723 408.027 330.277C418.442 324.463 425.393 329.94 432.157 323.846C440.118 316.675 436.174 303.968 439.249 303.379C443.719 302.523 458.351 328.161 449.953 340.5C442.893 350.872 425.678 342.854 416.973 354.422C409.654 364.15 419.115 373.422 410.987 384.897C404.295 394.346 394.238 391.926 388.344 402.942C384.319 410.461 386.112 416.814 383.64 417.315Z" fill="white"/>
</mask>
<g mask="url(#mask6_95_6510)">
<path opacity="0.5" d="M404.578 354.285L404.51 354.202C402.87 352.199 401.934 350.083 401.727 347.912C401.307 343.5 403.99 339.817 406.356 336.567C408.543 333.565 410.432 330.972 409.532 328.456C409.023 327.034 407.668 325.873 405.504 325.005L405.613 324.731C407.859 325.632 409.271 326.852 409.809 328.357C410.762 331.019 408.831 333.671 406.595 336.741C404.259 339.948 401.611 343.583 402.021 347.885C402.219 349.966 403.11 352.001 404.67 353.932C407.505 352.809 410.442 352.224 413.401 352.193C422.625 352.097 429.318 357.5 431.767 359.828L431.564 360.041C429.141 357.739 422.521 352.393 413.404 352.488C410.447 352.518 407.511 353.11 404.678 354.245L404.578 354.285Z" fill="white"/>
</g>
<mask id="mask7_95_6510" style="mask-type:luminance" maskUnits="userSpaceOnUse" x="373" y="303" width="80" height="115">
<path d="M383.64 417.315C380.205 418.012 371.777 406.754 374.146 397.469C376.751 387.258 390.091 388.54 394.29 377.406C397.718 368.313 390.166 364.261 392.608 351.854C394.266 343.432 400.062 334.723 408.027 330.277C418.442 324.463 425.393 329.94 432.157 323.846C440.118 316.675 436.174 303.968 439.249 303.379C443.719 302.523 458.351 328.161 449.953 340.5C442.893 350.872 425.678 342.854 416.973 354.422C409.654 364.15 419.115 373.422 410.987 384.897C404.295 394.346 394.238 391.926 388.344 402.942C384.319 410.461 386.112 416.814 383.64 417.315Z" fill="white"/>
</mask>
<g mask="url(#mask7_95_6510)">
<path opacity="0.5" d="M400.363 383.447L400.312 383.397C400.059 383.146 375.026 358.296 373.89 357.515L374.056 357.272C375.2 358.058 398.871 381.552 400.469 383.138L439.243 378.332L439.279 378.624L400.363 383.447Z" fill="white"/>
</g>
<path d="M383.725 425.321C381.587 424.561 378.523 423.23 375.298 420.876C371.907 418.402 368.663 416.036 367.423 412.064C365.99 407.479 368.843 406.038 367.409 401.837C365.779 397.062 361.453 397.549 359.765 392.588C358.619 389.22 359.601 386.024 360.469 383.197C361.51 379.809 363.879 374.938 365.426 375.253C367.261 375.626 364.797 382.648 368.971 387.49C372.131 391.157 375.803 389.753 378.929 394.035C379.353 394.615 381.711 397.845 381.197 401.706C380.567 406.438 376.792 407.694 375.894 411.614C375.253 414.413 376.301 418.718 383.725 425.321Z" fill="url(#paint10_linear_95_6510)"/>
<mask id="mask8_95_6510" style="mask-type:luminance" maskUnits="userSpaceOnUse" x="359" y="375" width="25" height="51">
<path d="M383.725 425.321C381.587 424.561 378.523 423.23 375.298 420.876C371.907 418.402 368.663 416.036 367.423 412.064C365.99 407.479 368.843 406.038 367.409 401.837C365.779 397.062 361.453 397.549 359.765 392.588C358.619 389.22 359.601 386.024 360.469 383.197C361.51 379.809 363.879 374.938 365.426 375.253C367.261 375.626 364.797 382.648 368.971 387.49C372.131 391.157 375.803 389.753 378.929 394.035C379.353 394.615 381.711 397.845 381.197 401.706C380.567 406.438 376.792 407.694 375.894 411.614C375.253 414.413 376.301 418.718 383.725 425.321Z" fill="white"/>
</mask>
<g mask="url(#mask8_95_6510)">
<path opacity="0.3" d="M384.769 426.985C384.095 426.341 383.197 425.574 382.246 424.762C378.073 421.199 372.359 416.319 372.986 411.701C373.316 409.27 373.731 407.378 374.065 405.857C374.71 402.922 375.099 401.15 374.196 398.851C373.126 396.125 371.179 394.968 369.118 393.743C367.264 392.641 365.347 391.501 364.065 389.136C361.983 385.298 362.574 379.906 365.82 373.108L366.086 373.235C362.883 379.943 362.29 385.245 364.324 388.995C365.568 391.289 367.449 392.408 369.269 393.49C371.281 394.686 373.363 395.924 374.47 398.743C375.406 401.126 375.01 402.93 374.353 405.92C374.02 407.436 373.606 409.321 373.278 411.741C372.673 416.2 378.317 421.019 382.437 424.538C383.392 425.353 384.293 426.123 384.973 426.772L384.769 426.985Z" fill="white"/>
</g>
<mask id="mask9_95_6510" style="mask-type:luminance" maskUnits="userSpaceOnUse" x="359" y="375" width="25" height="51">
<path d="M383.725 425.321C381.587 424.561 378.523 423.23 375.298 420.876C371.907 418.402 368.663 416.036 367.423 412.064C365.99 407.479 368.843 406.038 367.409 401.837C365.779 397.062 361.453 397.549 359.765 392.588C358.619 389.22 359.601 386.024 360.469 383.197C361.51 379.809 363.879 374.938 365.426 375.253C367.261 375.626 364.797 382.648 368.971 387.49C372.131 391.157 375.803 389.753 378.929 394.035C379.353 394.615 381.711 397.845 381.197 401.706C380.567 406.438 376.792 407.694 375.894 411.614C375.253 414.413 376.301 418.718 383.725 425.321Z" fill="white"/>
</mask>
<g mask="url(#mask9_95_6510)">
<path opacity="0.3" d="M365.879 393.316C364.611 392.906 363.226 392.218 361.946 391.072C357.306 386.917 358.369 380.468 358.417 380.195L358.707 380.246C358.661 380.512 357.623 386.805 362.143 390.853C364.483 392.949 367.192 393.472 368.81 393.579C368.103 392.834 366.44 390.745 366.79 387.883C367.081 385.499 368.59 384.004 369.225 383.472L369.415 383.698C368.806 384.207 367.361 385.639 367.082 387.919C366.684 391.178 369.02 393.395 369.287 393.636L369.585 393.906L369.183 393.893C368.377 393.866 367.191 393.741 365.879 393.316Z" fill="white"/>
</g>
<mask id="mask10_95_6510" style="mask-type:luminance" maskUnits="userSpaceOnUse" x="359" y="375" width="25" height="51">
<path d="M383.725 425.321C381.587 424.561 378.523 423.23 375.298 420.876C371.907 418.402 368.663 416.036 367.423 412.064C365.99 407.479 368.843 406.038 367.409 401.837C365.779 397.062 361.453 397.549 359.765 392.588C358.619 389.22 359.601 386.024 360.469 383.197C361.51 379.809 363.879 374.938 365.426 375.253C367.261 375.626 364.797 382.648 368.971 387.49C372.131 391.157 375.803 389.753 378.929 394.035C379.353 394.615 381.711 397.845 381.197 401.706C380.567 406.438 376.792 407.694 375.894 411.614C375.253 414.413 376.301 418.718 383.725 425.321Z" fill="white"/>
</mask>
<g mask="url(#mask10_95_6510)">
<path opacity="0.3" d="M374.408 404.763L374.357 404.584C373.917 403.065 372.951 400.909 370.85 399.263C366.103 395.546 359.971 397.948 359.712 398.052L359.603 397.778C359.868 397.672 366.153 395.211 371.031 399.031C373.113 400.661 374.11 402.774 374.586 404.322C375.55 403.743 378.014 401.977 378.806 398.688C379.906 394.126 376.875 390.715 376.526 390.342L376.742 390.141C377.102 390.526 380.228 394.045 379.093 398.757C378.224 402.364 375.412 404.196 374.571 404.671L374.408 404.763Z" fill="white"/>
</g>
<mask id="mask11_95_6510" style="mask-type:luminance" maskUnits="userSpaceOnUse" x="359" y="375" width="25" height="51">
<path d="M383.725 425.321C381.587 424.561 378.523 423.23 375.298 420.876C371.907 418.402 368.663 416.036 367.423 412.064C365.99 407.479 368.843 406.038 367.409 401.837C365.779 397.062 361.453 397.549 359.765 392.588C358.619 389.22 359.601 386.024 360.469 383.197C361.51 379.809 363.879 374.938 365.426 375.253C367.261 375.626 364.797 382.648 368.971 387.49C372.131 391.157 375.803 389.753 378.929 394.035C379.353 394.615 381.711 397.845 381.197 401.706C380.567 406.438 376.792 407.694 375.894 411.614C375.253 414.413 376.301 418.718 383.725 425.321Z" fill="white"/>
</mask>
<g mask="url(#mask11_95_6510)">
<path opacity="0.3" d="M373.063 413.87L372.983 413.65C372.298 411.761 371.181 410.025 369.752 408.629C367.723 406.647 365.489 405.727 363.97 405.304L364.049 405.021C365.601 405.452 367.885 406.392 369.958 408.418C371.363 409.791 372.473 411.485 373.178 413.33L381.973 404.32L382.184 404.526L373.063 413.87Z" fill="white"/>
</g>
<path d="M378.175 310.767C375.979 311.791 379.781 317.674 378.143 327.325C375.538 342.667 362.783 346.481 363.872 358.428C364.46 364.865 367.259 369.309 367.259 369.309C368.179 370.77 368.873 371.452 372.068 375.772C372.364 376.173 375.228 380.049 375.926 381.121C380.661 388.386 371.023 399.031 373.949 409.434C375.971 416.62 381.284 421.502 385.641 424.575C377.467 411.729 377.559 403.491 379.361 398.241C381.86 390.96 387.53 389.767 390.552 380.6C392.663 374.198 390.692 372.368 390.743 360.598C390.822 342.396 395.562 340.424 393.157 330.433C390.334 318.707 380.918 309.489 378.175 310.767Z" fill="url(#paint11_linear_95_6510)"/>
<mask id="mask12_95_6510" style="mask-type:luminance" maskUnits="userSpaceOnUse" x="363" y="310" width="31" height="115">
<path d="M378.175 310.767C375.979 311.791 379.781 317.674 378.143 327.325C375.538 342.667 362.783 346.481 363.872 358.428C364.46 364.865 367.259 369.309 367.259 369.309C368.179 370.77 368.873 371.452 372.068 375.772C372.364 376.173 375.228 380.049 375.926 381.121C380.661 388.386 371.023 399.031 373.949 409.434C375.971 416.62 381.284 421.502 385.641 424.575C377.467 411.729 377.559 403.491 379.361 398.241C381.86 390.96 387.53 389.767 390.552 380.6C392.663 374.198 390.692 372.368 390.743 360.598C390.822 342.396 395.562 340.424 393.157 330.433C390.334 318.707 380.918 309.489 378.175 310.767Z" fill="white"/>
</mask>
<g mask="url(#mask12_95_6510)">
<path opacity="0.5" d="M377.276 414.644C375.595 408.735 375.406 403.054 376.715 397.757C377.72 393.689 379.228 391.329 380.687 389.046C382.1 386.835 383.435 384.745 384.082 381.312C385.005 376.414 383.649 373.587 382.079 370.313C380.746 367.532 379.234 364.381 378.991 359.413C378.659 352.638 380.959 348.406 383.183 344.314C385.267 340.479 387.235 336.857 387.176 331.314C387.095 323.673 383.002 315.889 375.012 308.178L375.216 307.966C383.265 315.734 387.389 323.588 387.471 331.311C387.531 336.931 385.452 340.756 383.442 344.455C381.237 348.512 378.957 352.707 379.285 359.399C379.526 364.307 381.024 367.431 382.345 370.186C383.938 373.506 385.313 376.374 384.372 381.367C383.714 384.856 382.364 386.969 380.935 389.205C379.489 391.467 377.995 393.807 377.001 397.828C375.705 403.074 375.893 408.705 377.56 414.564L377.276 414.644Z" fill="white"/>
</g>
<mask id="mask13_95_6510" style="mask-type:luminance" maskUnits="userSpaceOnUse" x="363" y="310" width="31" height="115">
<path d="M378.175 310.767C375.979 311.791 379.781 317.674 378.143 327.325C375.538 342.667 362.783 346.481 363.872 358.428C364.46 364.865 367.259 369.309 367.259 369.309C368.179 370.77 368.873 371.452 372.068 375.772C372.364 376.173 375.228 380.049 375.926 381.121C380.661 388.386 371.023 399.031 373.949 409.434C375.971 416.62 381.284 421.502 385.641 424.575C377.467 411.729 377.559 403.491 379.361 398.241C381.86 390.96 387.53 389.767 390.552 380.6C392.663 374.198 390.692 372.368 390.743 360.598C390.822 342.396 395.562 340.424 393.157 330.433C390.334 318.707 380.918 309.489 378.175 310.767Z" fill="white"/>
</mask>
<g mask="url(#mask13_95_6510)">
<path opacity="0.5" d="M385.315 340.52L385.321 340.28C385.374 338.419 385.095 333.647 381.381 329.552C378.022 325.849 373.781 324.919 372.113 324.691L372.153 324.4C373.852 324.631 378.175 325.579 381.599 329.355C385.234 333.362 385.641 338.005 385.62 340.048C387.96 338.9 389.968 337.214 391.438 335.162C394.859 330.384 394.427 325.112 394.082 323.068L394.372 323.019C394.723 325.1 395.163 330.466 391.678 335.333C390.134 337.489 388.008 339.247 385.531 340.417L385.315 340.52Z" fill="white"/>
</g>
<mask id="mask14_95_6510" style="mask-type:luminance" maskUnits="userSpaceOnUse" x="363" y="310" width="31" height="115">
<path d="M378.175 310.767C375.979 311.791 379.781 317.674 378.143 327.325C375.538 342.667 362.783 346.481 363.872 358.428C364.46 364.865 367.259 369.309 367.259 369.309C368.179 370.77 368.873 371.452 372.068 375.772C372.364 376.173 375.228 380.049 375.926 381.121C380.661 388.386 371.023 399.031 373.949 409.434C375.971 416.62 381.284 421.502 385.641 424.575C377.467 411.729 377.559 403.491 379.361 398.241C381.86 390.96 387.53 389.767 390.552 380.6C392.663 374.198 390.692 372.368 390.743 360.598C390.822 342.396 395.562 340.424 393.157 330.433C390.334 318.707 380.918 309.489 378.175 310.767Z" fill="white"/>
</mask>
<g mask="url(#mask14_95_6510)">
<path opacity="0.5" d="M381.416 368.555L381.266 368.488C378.957 367.45 377.172 366.001 375.961 364.181C374.548 362.056 374.356 360.091 374.152 358.01C374.028 356.741 373.899 355.429 373.486 354.009C372.434 350.401 369.786 347.135 365.614 344.301L365.78 344.058C370.009 346.931 372.697 350.251 373.768 353.927C374.19 355.373 374.319 356.699 374.445 357.981C374.645 360.024 374.834 361.955 376.206 364.018C377.359 365.751 379.051 367.141 381.236 368.15C382.065 365.577 383.126 363.07 384.391 360.695C386.733 356.299 389.785 352.311 393.463 348.843L393.665 349.058C390.01 352.504 386.978 356.465 384.651 360.833C383.369 363.241 382.297 365.786 381.466 368.398L381.416 368.555Z" fill="white"/>
</g>
<mask id="mask15_95_6510" style="mask-type:luminance" maskUnits="userSpaceOnUse" x="363" y="310" width="31" height="115">
<path d="M378.175 310.767C375.979 311.791 379.781 317.674 378.143 327.325C375.538 342.667 362.783 346.481 363.872 358.428C364.46 364.865 367.259 369.309 367.259 369.309C368.179 370.77 368.873 371.452 372.068 375.772C372.364 376.173 375.228 380.049 375.926 381.121C380.661 388.386 371.023 399.031 373.949 409.434C375.971 416.62 381.284 421.502 385.641 424.575C377.467 411.729 377.559 403.491 379.361 398.241C381.86 390.96 387.53 389.767 390.552 380.6C392.663 374.198 390.692 372.368 390.743 360.598C390.822 342.396 395.562 340.424 393.157 330.433C390.334 318.707 380.918 309.489 378.175 310.767Z" fill="white"/>
</mask>
<g mask="url(#mask15_95_6510)">
<path opacity="0.5" d="M383.21 384.845L383.159 384.592C382.917 383.407 381.823 379.346 377.917 376.83C372.819 373.547 367.314 375.648 366.703 375.898L366.592 375.625C367.217 375.369 372.852 373.219 378.077 376.583C381.837 379.004 383.053 382.823 383.392 384.282C385.39 382.446 387.117 380.356 388.528 378.066C390.826 374.336 392.289 370.013 392.758 365.563L393.051 365.594C392.577 370.087 391.1 374.453 388.779 378.22C387.309 380.605 385.5 382.776 383.402 384.672L383.21 384.845Z" fill="white"/>
</g>
<path d="M386.559 425.905C384.098 424.617 379.622 421.831 377.094 416.962C372.569 408.242 377.013 398.078 382.977 393.232C390.421 387.184 396.421 392.519 403.448 386.823C411.428 380.353 406.251 371.394 414.548 364.685C420.18 360.131 427.536 360.24 434.039 360.336C441.837 360.452 453.892 362.485 454.764 365.995C455.798 370.155 439.342 369.261 433.697 381.218C429.423 390.272 435.801 397.261 430.261 406.625C429.51 407.894 425.33 414.96 417.1 416.266C406.339 417.975 398.684 408.243 392.106 411.092C389.437 412.248 386.583 415.633 386.559 425.905Z" fill="url(#paint12_linear_95_6510)"/>
<mask id="mask16_95_6510" style="mask-type:luminance" maskUnits="userSpaceOnUse" x="375" y="360" width="80" height="66">
<path d="M386.559 425.905C384.098 424.617 379.622 421.831 377.094 416.962C372.569 408.243 377.013 398.078 382.977 393.232C390.421 387.184 396.421 392.519 403.448 386.823C411.428 380.353 406.251 371.394 414.548 364.685C420.18 360.131 427.536 360.24 434.039 360.336C441.837 360.452 453.892 362.485 454.764 365.995C455.798 370.155 439.342 369.261 433.697 381.218C429.423 390.272 435.802 397.261 430.261 406.625C429.511 407.894 425.33 414.96 417.1 416.266C406.339 417.975 398.684 408.243 392.106 411.092C389.437 412.248 386.583 415.633 386.559 425.905Z" fill="white"/>
</mask>
<g mask="url(#mask16_95_6510)">
<path opacity="0.74" d="M385.67 428.937C380.637 417.768 379.861 409.725 383.364 405.031C386.158 401.286 390.476 400.983 395.476 400.633C400.541 400.279 406.281 399.877 411.493 395.608C416.251 391.71 417.43 387.257 418.679 382.543C419.811 378.265 420.983 373.842 425.086 369.937C431.655 363.685 442.683 361.835 457.862 364.437L457.812 364.727C442.729 362.141 431.787 363.966 425.289 370.15C421.246 373.998 420.086 378.38 418.963 382.618C417.758 387.17 416.512 391.877 411.679 395.836C406.396 400.164 400.605 400.569 395.497 400.927C390.569 401.272 386.313 401.57 383.6 405.207C380.166 409.809 380.953 417.752 385.939 428.816L385.67 428.937Z" fill="white"/>
</g>
<mask id="mask17_95_6510" style="mask-type:luminance" maskUnits="userSpaceOnUse" x="375" y="360" width="80" height="66">
<path d="M386.559 425.905C384.098 424.617 379.622 421.831 377.094 416.962C372.569 408.243 377.013 398.078 382.977 393.232C390.421 387.184 396.421 392.519 403.448 386.823C411.428 380.353 406.251 371.394 414.548 364.685C420.18 360.131 427.536 360.24 434.039 360.336C441.837 360.452 453.892 362.485 454.764 365.995C455.798 370.155 439.342 369.261 433.697 381.218C429.423 390.272 435.802 397.261 430.261 406.625C429.511 407.894 425.33 414.96 417.1 416.266C406.339 417.975 398.684 408.243 392.106 411.092C389.437 412.248 386.583 415.633 386.559 425.905Z" fill="white"/>
</mask>
<g mask="url(#mask17_95_6510)">
<path opacity="0.74" d="M414.742 393.279C414.618 393.239 414.499 393.189 414.383 393.129C412.364 392.08 412.401 388.376 412.437 384.795C412.494 379.186 414.075 374.774 415.013 372.644C418.01 365.835 422.846 361.383 426.376 358.848L426.547 359.087C423.048 361.601 418.253 366.015 415.282 372.763C414.354 374.872 412.788 379.241 412.732 384.798C412.697 388.291 412.66 391.902 414.519 392.868C417.451 394.392 423.501 388.57 425.778 386.377L425.953 386.208C427.479 384.74 428.494 383.405 429.389 382.227C430.647 380.573 431.733 379.145 433.768 377.927C436.836 376.091 440.732 375.567 445.347 376.368L445.297 376.659C440.753 375.869 436.925 376.381 433.919 378.18C431.933 379.368 430.863 380.776 429.624 382.406C428.722 383.592 427.7 384.937 426.157 386.421L425.982 386.589C423.75 388.739 417.957 394.319 414.742 393.279Z" fill="white"/>
</g>
<mask id="mask18_95_6510" style="mask-type:luminance" maskUnits="userSpaceOnUse" x="375" y="360" width="80" height="66">
<path d="M386.559 425.905C384.098 424.617 379.622 421.831 377.094 416.962C372.569 408.243 377.013 398.078 382.977 393.232C390.421 387.184 396.421 392.519 403.448 386.823C411.428 380.353 406.251 371.394 414.548 364.685C420.18 360.131 427.536 360.24 434.039 360.336C441.837 360.452 453.892 362.485 454.764 365.995C455.798 370.155 439.342 369.261 433.697 381.218C429.423 390.272 435.802 397.261 430.261 406.625C429.511 407.894 425.33 414.96 417.1 416.266C406.339 417.975 398.684 408.243 392.106 411.092C389.437 412.248 386.583 415.633 386.559 425.905Z" fill="white"/>
</mask>
<g mask="url(#mask18_95_6510)">
<path opacity="0.74" d="M409.615 408.812C406.436 407.783 402.711 405.051 398.48 400.635L398.352 400.501L398.512 400.406C401.194 398.823 403.279 396.793 404.707 394.372C406.381 391.535 406.649 388.963 407.019 385.403L407.049 385.112C408.15 374.547 408.703 369.244 409.618 367.007C411.4 362.649 415.079 358.945 420.554 355.999L420.693 356.258C415.281 359.171 411.646 362.825 409.891 367.119C408.992 369.317 408.441 374.606 407.342 385.142L407.312 385.434C406.938 389.03 406.668 391.629 404.961 394.522C403.535 396.938 401.47 398.97 398.821 400.564C405.17 407.156 410.327 409.898 414.152 408.716C416.283 408.057 417.45 406.379 418.802 404.436C420.156 402.489 421.692 400.282 424.555 398.55C428.259 396.309 432.933 395.636 438.447 396.55L438.399 396.841C432.956 395.939 428.35 396.599 424.707 398.802C421.898 400.502 420.381 402.681 419.044 404.605C417.661 406.592 416.467 408.308 414.239 408.997C412.858 409.424 411.314 409.362 409.615 408.812Z" fill="white"/>
</g>
<mask id="mask19_95_6510" style="mask-type:luminance" maskUnits="userSpaceOnUse" x="375" y="360" width="80" height="66">
<path d="M386.559 425.905C384.098 424.617 379.622 421.831 377.094 416.962C372.569 408.243 377.013 398.078 382.977 393.232C390.421 387.184 396.421 392.519 403.448 386.823C411.428 380.353 406.251 371.394 414.548 364.685C420.18 360.131 427.536 360.24 434.039 360.336C441.837 360.452 453.892 362.485 454.764 365.995C455.798 370.155 439.342 369.261 433.697 381.218C429.423 390.272 435.802 397.261 430.261 406.625C429.511 407.894 425.33 414.96 417.1 416.266C406.339 417.975 398.684 408.243 392.106 411.092C389.437 412.248 386.583 415.633 386.559 425.905Z" fill="white"/>
</mask>
<g mask="url(#mask19_95_6510)">
<path d="M404.984 419.392C397.467 416.96 393.34 411.486 393.296 411.428C393.065 411.116 392.834 410.783 392.596 410.44C391.345 408.64 389.925 406.601 387.392 405.932C386.015 405.569 384.504 405.666 382.9 406.219L382.706 406.286L382.705 406.081C382.688 404.178 383.134 402.543 384.029 401.222C385.17 399.538 386.866 398.86 388.363 398.263C389.891 397.652 391.212 397.124 391.68 395.709C392.785 392.37 391.055 389.426 390.697 388.869L390.945 388.71C391.315 389.286 393.107 392.336 391.96 395.802C391.448 397.347 390.003 397.925 388.472 398.536C387.015 399.118 385.363 399.778 384.273 401.387C383.444 402.611 383.015 404.12 382.999 405.875C384.587 405.361 386.089 405.284 387.467 405.647C390.108 406.341 391.558 408.43 392.838 410.272C393.074 410.613 393.304 410.943 393.533 411.252C393.579 411.314 398.205 417.448 406.594 419.547C414.709 421.577 422.808 415.598 425.913 412.933L426.105 413.157C422.965 415.851 414.771 421.896 406.522 419.832C405.995 419.7 405.482 419.553 404.984 419.392Z" fill="white"/>
</g>
<path d="M132.718 416.621L228.399 392.688L233.184 415.934L145.591 456.361L76.2351 439.229L34.3965 398.15L132.718 416.621Z" fill="url(#paint13_linear_95_6510)"/>
<path d="M132.718 416.621L228.399 392.688L233.184 415.934L145.591 456.361L76.2351 439.229L34.3965 398.15L132.718 416.621Z" fill="url(#paint14_linear_95_6510)"/>
<path d="M129.71 448.797C148.727 438.602 162.771 428.218 172.305 420.369C191.062 404.925 199.667 393.275 218.656 388.672C222.05 387.85 241.386 383.162 247.625 391.748C254.534 401.255 241.103 421.135 239.471 423.549C215.21 459.46 153.429 457.784 134.05 456.619C132.604 454.012 131.157 451.404 129.71 448.797Z" fill="url(#paint15_linear_95_6510)"/>
<path opacity="0.3" d="M247.626 391.749C245.802 389.24 242.848 387.886 239.512 387.216C240.622 391.059 240.723 394.665 239.337 397.816C235.546 406.428 224.32 403.776 216.435 413.882C208.691 423.807 214.051 433.373 207.206 437.467C199.359 442.16 189.632 431.197 181.227 436.442C175.513 440.007 177.291 446.772 170.631 450.456C166.029 453.003 161.518 451.799 156.275 451.14C150.266 450.385 142.033 450.224 131.699 452.382C132.483 453.795 133.267 455.207 134.051 456.62C153.429 457.785 215.211 459.46 239.472 423.55C241.103 421.135 254.534 401.255 247.626 391.749Z" fill="url(#paint16_linear_95_6510)"/>
<path d="M144.088 454.163C144.088 454.163 147.572 451.665 152.629 453.368C157.685 455.07 165.714 456.444 165.702 458.917C165.689 461.389 157.656 462.936 152.105 461.92C146.795 460.948 142.618 456.333 144.088 454.163Z" fill="url(#paint17_linear_95_6510)"/>
<path d="M138.981 449.943L148.287 452.937C148.287 452.937 149.798 455.455 147.758 457.052C145.718 458.649 138.629 455.272 138.629 455.272L138.981 449.943Z" fill="url(#paint18_linear_95_6510)"/>
<path d="M9.63477 407.046C6.88705 423.044 41.4136 440.35 49.3176 444.311C65.4263 452.385 95.7364 463.784 140.722 459.429C141.32 455.84 141.918 452.251 142.517 448.662C136.574 446.626 127.767 443.317 117.548 438.29C100.108 429.711 93.4856 423.584 69.2847 408.953C42.5051 392.762 34.7045 390.685 26.7256 392.689C19.9031 394.402 10.9114 399.612 9.63477 407.046Z" fill="url(#paint19_linear_95_6510)"/>
<path d="M45.6109 376.623C39.7746 355.515 49.4085 327.034 69.7091 313.301C86.2791 302.093 105.694 302.82 111.753 303.047C118.385 303.295 117.7 304.156 138.575 308.019C167.557 313.381 170.233 312.081 178.664 316.121C194.516 323.719 202.209 337.523 203.648 340.209C211.015 353.954 217.01 379.508 203.018 392.005C195.064 399.109 183.913 399.08 177.638 398.414C177.211 395.594 176.784 392.774 176.357 389.954C177.634 388.965 185.168 382.926 186.098 372.265C187.168 360.013 178.604 352.105 177.638 351.243C174.601 357.107 170.862 366.011 169.178 377.392C167.005 392.09 169.256 404.176 171.162 411.283C163.497 415.49 150.823 421.199 134.313 423.025C121.874 424.401 106.474 421.766 96.6274 414.072C82.7338 403.214 81.5594 379.277 95.2812 349.847C90.2587 353.211 82.9823 359.297 79.9639 368.932C79.5076 370.389 78.7348 373.248 78.4255 384.314C77.8706 404.197 51.6592 398.497 45.6109 376.623Z" fill="url(#paint20_linear_95_6510)"/>
<path opacity="0.3" d="M139.697 391.236C132.705 392.093 130.803 399.351 124.315 398.926C110.199 398.002 98.869 373.564 104.831 360.215C108.719 351.512 118.854 349.994 118.162 344.321C117.609 339.781 110.575 336.288 104.831 336.117C95.8885 335.852 89.9835 343.639 87.9113 346.372C83.0686 352.758 82.0246 359.77 81.915 364.28C85.4687 357.308 91.1285 352.628 95.2814 349.846C81.5596 379.276 82.734 402.67 96.6277 413.528C106.474 421.223 121.875 424.4 134.313 423.024C147.713 421.542 158.586 417.502 166.305 413.784C158.804 401.575 149.252 390.064 139.697 391.236Z" fill="url(#paint21_linear_95_6510)"/>
<path d="M164.062 411.147L82.2529 409.926L104.007 420.425L164.271 416.481L164.062 411.147Z" fill="url(#paint22_linear_95_6510)"/>
<path d="M49.567 362.558C55.8799 356.582 71.3669 360.346 77.1442 368.932C81.3973 375.252 77.8775 380.452 80.9896 388.415C84.8024 398.17 99.1842 406.99 108.023 409.925C106.639 412.904 107.046 413.675 105.663 416.654C100.04 415.952 59.3988 409.726 49.4568 385.595C48.9391 384.338 42.7975 368.965 49.567 362.558Z" fill="url(#paint23_linear_95_6510)"/>
<path d="M141.818 299.561C141.818 299.561 135.202 306.715 129.71 307.46C124.219 308.204 116.282 306.745 114.915 307.46C113.547 308.173 121.811 311.114 128.366 312.911C134.921 314.709 146.822 318.301 150.112 317.515C153.403 316.728 146.517 312.509 143.79 311.391C141.063 310.272 144.966 304.527 144.966 304.527L141.818 299.561Z" fill="white"/>
<path d="M151.635 303.658C154.027 302.998 156.212 300.313 156.185 297.53C156.161 295.135 154.48 293.501 153.474 292.523C150.558 289.687 145.49 287.913 141.816 289.776C139.639 290.881 138.645 295.895 138.425 296.764C138.176 297.748 138.56 298.447 138.666 299.417C138.813 300.762 139.028 302.886 139.34 306.403C139.955 305.91 140.757 305.331 141.74 304.791C142.119 304.584 143.612 303.784 145.226 303.41C148.462 302.661 149.367 304.283 151.635 303.658Z" fill="url(#paint24_linear_95_6510)"/>
<path d="M137.967 302.591C137.967 302.591 137.412 307.664 141.811 310.618C145.75 313.263 152.779 305.275 151.759 301.645C151.418 300.433 150.008 298.953 148.425 298.315C147.49 297.938 146.984 298.057 145.469 297.412C144.071 296.817 143.841 296.434 143.262 296.459C142.537 296.491 141.515 297.15 140.355 300.175C140.198 298.899 139.553 297.959 138.723 297.778C138.591 297.749 138.198 297.726 137.849 297.879C136.584 298.436 136.517 300.339 137.967 302.591Z" fill="white"/>
<path d="M143.48 295.825C143.557 296.099 142.484 296.348 141.707 297.271C140.198 299.064 140.361 302.735 142.13 304.399C143.176 305.382 144.012 304.94 146.036 306.183C147.289 306.953 148.14 307.843 148.644 308.444C147.666 310.93 145.551 312.531 143.467 312.425C141.223 312.31 139.827 310.256 139.244 309.397C138.853 308.823 137.6 306.985 137.908 304.774C138.229 302.47 139.867 302.195 139.655 300.306C139.548 299.353 139.036 298.582 139.176 297.005C139.214 296.576 139.287 296.228 139.344 295.999C141.102 295.719 143.368 295.428 143.48 295.825Z" fill="url(#paint25_linear_95_6510)"/>
<path d="M146.702 308.148C146.702 308.148 145.566 307.947 144.227 306.79C144.161 306.734 144.071 306.696 144.035 306.725C143.901 306.832 144.341 308.12 145.347 308.524C146.062 308.812 146.947 308.608 146.977 308.405C146.99 308.32 146.851 308.226 146.702 308.148Z" fill="url(#paint26_linear_95_6510)"/>
<path d="M110.193 368.816L104.426 421.321C104.227 423.132 106.764 425.832 108.584 425.745L193.179 420.552C194.568 420.486 195.726 419.463 195.962 418.092L206.579 367.382C206.896 365.536 203.579 363.63 201.707 363.683L113.057 366.175C111.577 366.217 110.354 367.344 110.193 368.816Z" fill="url(#paint27_linear_95_6510)"/>
<path d="M112.126 370.347L106.36 422.852C106.161 424.664 107.628 426.225 109.448 426.139L195.112 422.083C196.502 422.018 197.66 420.994 197.895 419.623L206.647 368.681C206.964 366.835 205.512 365.161 203.641 365.214L114.991 367.707C113.511 367.748 112.288 368.876 112.126 370.347Z" fill="url(#paint28_linear_95_6510)"/>
<path opacity="0.3" d="M162.427 409.78C154.948 406.61 157.587 400.564 148.755 393.031C137.102 383.093 125.225 387.403 121.067 379.7C119.772 377.301 119.154 373.567 121.409 367.525L114.99 367.706C113.51 367.748 112.287 368.875 112.125 370.347L106.359 422.852C106.16 424.663 107.627 426.224 109.447 426.138L195.112 422.083C196.502 422.017 197.659 420.994 197.894 419.622L199.102 412.593C196.503 411.146 193.397 409.831 189.773 409.096C177.205 406.547 171.039 413.429 162.427 409.78Z" fill="url(#paint29_linear_95_6510)"/>
<path d="M103.096 414.828C106.675 418.179 109.066 417.88 109.869 417.695C111.215 417.385 111.396 416.634 114.811 413.961C117.862 411.573 118.826 411.305 118.791 410.481C118.723 408.922 115.166 407.556 112.269 407.411C108.209 407.207 105.141 409.389 103.936 410.358L103.096 414.828Z" fill="white"/>
<defs>
<linearGradient id="paint0_linear_95_6510" x1="304.929" y1="41.6758" x2="-24.3401" y2="234.415" gradientUnits="userSpaceOnUse">
<stop offset="0.0036" stop-color="#E38DDD"/>
<stop offset="1" stop-color="#9571F6"/>
</linearGradient>
<linearGradient id="paint1_linear_95_6510" x1="481.748" y1="177.345" x2="107.546" y2="202.185" gradientUnits="userSpaceOnUse">
<stop stop-color="#FFC444"/>
<stop offset="0.9964" stop-color="#F36F56"/>
</linearGradient>
<linearGradient id="paint2_linear_95_6510" x1="426.859" y1="84.1313" x2="102.365" y2="203.94" gradientUnits="userSpaceOnUse">
<stop stop-color="#FF9085"/>
<stop offset="1" stop-color="#FB6FBB"/>
</linearGradient>
<linearGradient id="paint3_linear_95_6510" x1="81.5882" y1="17.5807" x2="176.59" y2="179.643" gradientUnits="userSpaceOnUse">
<stop stop-color="#444B8C"/>
<stop offset="0.9964" stop-color="#26264F"/>
</linearGradient>
<linearGradient id="paint4_linear_95_6510" x1="189.718" y1="134.024" x2="389.781" y2="755.448" gradientUnits="userSpaceOnUse">
<stop stop-color="#444B8C"/>
<stop offset="0.9964" stop-color="#26264F"/>
</linearGradient>
<linearGradient id="paint5_linear_95_6510" x1="64.0878" y1="269.344" x2="413.328" y2="269.344" gradientUnits="userSpaceOnUse">
<stop offset="0.494" stop-color="#EBEFF2"/>
<stop offset="1" stop-color="white"/>
</linearGradient>
<linearGradient id="paint6_linear_95_6510" x1="455.174" y1="196.084" x2="415.99" y2="269.111" gradientUnits="userSpaceOnUse">
<stop stop-color="#444B8C"/>
<stop offset="0.9964" stop-color="#26264F"/>
</linearGradient>
<linearGradient id="paint7_linear_95_6510" x1="176.589" y1="251.109" x2="312.001" y2="263.634" gradientUnits="userSpaceOnUse">
<stop stop-color="#FF9085"/>
<stop offset="1" stop-color="#FB6FBB"/>
</linearGradient>
<linearGradient id="paint8_linear_95_6510" x1="176.522" y1="251.83" x2="279.309" y2="261.337" gradientUnits="userSpaceOnUse">
<stop stop-color="#FF9085"/>
<stop offset="1" stop-color="#FB6FBB"/>
</linearGradient>
<linearGradient id="paint9_linear_95_6510" x1="414.565" y1="308.586" x2="411.618" y2="425.635" gradientUnits="userSpaceOnUse">
<stop offset="0.0036" stop-color="#E38DDD"/>
<stop offset="1" stop-color="#9571F6"/>
</linearGradient>
<linearGradient id="paint10_linear_95_6510" x1="361.194" y1="410.306" x2="371.899" y2="402.133" gradientUnits="userSpaceOnUse">
<stop stop-color="#AA80F9"/>
<stop offset="0.9964" stop-color="#6165D7"/>
</linearGradient>
<linearGradient id="paint11_linear_95_6510" x1="370.667" y1="309.707" x2="400.08" y2="447.283" gradientUnits="userSpaceOnUse">
<stop stop-color="#AA80F9"/>
<stop offset="0.9964" stop-color="#6165D7"/>
</linearGradient>
<linearGradient id="paint12_linear_95_6510" x1="466.059" y1="374.05" x2="409.218" y2="400.07" gradientUnits="userSpaceOnUse">
<stop stop-color="#AA80F9"/>
<stop offset="0.9964" stop-color="#6165D7"/>
</linearGradient>
<linearGradient id="paint13_linear_95_6510" x1="134.88" y1="385.53" x2="132.829" y2="426.036" gradientUnits="userSpaceOnUse">
<stop stop-color="#FF9085"/>
<stop offset="1" stop-color="#FB6FBB"/>
</linearGradient>
<linearGradient id="paint14_linear_95_6510" x1="134.88" y1="385.53" x2="132.829" y2="426.036" gradientUnits="userSpaceOnUse">
<stop stop-color="#AA80F9"/>
<stop offset="0.9964" stop-color="#6165D7"/>
</linearGradient>
<linearGradient id="paint15_linear_95_6510" x1="129.71" y1="421.867" x2="249.587" y2="421.867" gradientUnits="userSpaceOnUse">
<stop stop-color="#AA80F9"/>
<stop offset="0.9964" stop-color="#6165D7"/>
</linearGradient>
<linearGradient id="paint16_linear_95_6510" x1="129.71" y1="422.147" x2="249.587" y2="422.147" gradientUnits="userSpaceOnUse">
<stop stop-color="#AA80F9"/>
<stop offset="0.9964" stop-color="#6165D7"/>
</linearGradient>
<linearGradient id="paint17_linear_95_6510" x1="163.657" y1="468.513" x2="140.584" y2="439.8" gradientUnits="userSpaceOnUse">
<stop stop-color="#311944"/>
<stop offset="1" stop-color="#6B3976"/>
</linearGradient>
<linearGradient id="paint18_linear_95_6510" x1="149.491" y1="461.694" x2="117.701" y2="421.701" gradientUnits="userSpaceOnUse">
<stop stop-color="#FFC444"/>
<stop offset="0.9964" stop-color="#F36F56"/>
</linearGradient>
<linearGradient id="paint19_linear_95_6510" x1="81.0526" y1="420.526" x2="54.6389" y2="475.467" gradientUnits="userSpaceOnUse">
<stop stop-color="#AA80F9"/>
<stop offset="0.9964" stop-color="#6165D7"/>
</linearGradient>
<linearGradient id="paint20_linear_95_6510" x1="72.6138" y1="482.619" x2="128.223" y2="363.059" gradientUnits="userSpaceOnUse">
<stop offset="0.0036" stop-color="#F36F56"/>
<stop offset="1" stop-color="#FFC444"/>
</linearGradient>
<linearGradient id="paint21_linear_95_6510" x1="120.044" y1="323.261" x2="124.388" y2="393.536" gradientUnits="userSpaceOnUse">
<stop offset="0.0036" stop-color="#F36F56"/>
<stop offset="1" stop-color="#FFC444"/>
</linearGradient>
<linearGradient id="paint22_linear_95_6510" x1="82.2529" y1="415.175" x2="164.271" y2="415.175" gradientUnits="userSpaceOnUse">
<stop stop-color="#AA80F9"/>
<stop offset="0.9964" stop-color="#6165D7"/>
</linearGradient>
<linearGradient id="paint23_linear_95_6510" x1="38.4835" y1="473.01" x2="95.7072" y2="349.979" gradientUnits="userSpaceOnUse">
<stop offset="0.0036" stop-color="#F36F56"/>
<stop offset="1" stop-color="#FFC444"/>
</linearGradient>
<linearGradient id="paint24_linear_95_6510" x1="124.243" y1="310.394" x2="152.203" y2="293.517" gradientUnits="userSpaceOnUse">
<stop stop-color="#311944"/>
<stop offset="1" stop-color="#6B3976"/>
</linearGradient>
<linearGradient id="paint25_linear_95_6510" x1="126.262" y1="313.77" x2="154.252" y2="296.875" gradientUnits="userSpaceOnUse">
<stop stop-color="#311944"/>
<stop offset="1" stop-color="#6B3976"/>
</linearGradient>
<linearGradient id="paint26_linear_95_6510" x1="144.012" y1="307.691" x2="146.978" y2="307.691" gradientUnits="userSpaceOnUse">
<stop offset="0.0036" stop-color="#F36F56"/>
<stop offset="1" stop-color="#FFC444"/>
</linearGradient>
<linearGradient id="paint27_linear_95_6510" x1="104.415" y1="394.714" x2="206.6" y2="394.714" gradientUnits="userSpaceOnUse">
<stop stop-color="#444B8C"/>
<stop offset="0.9964" stop-color="#26264F"/>
</linearGradient>
<linearGradient id="paint28_linear_95_6510" x1="106.342" y1="395.677" x2="206.691" y2="395.677" gradientUnits="userSpaceOnUse">
<stop stop-color="#444B8C"/>
<stop offset="0.9964" stop-color="#26264F"/>
</linearGradient>
<linearGradient id="paint29_linear_95_6510" x1="106.341" y1="396.834" x2="199.102" y2="396.834" gradientUnits="userSpaceOnUse">
<stop stop-color="#444B8C"/>
<stop offset="0.9964" stop-color="#26264F"/>
</linearGradient>
</defs>
</svg>
