<svg width="24" height="25" viewBox="0 0 24 25" fill="none" xmlns="http://www.w3.org/2000/svg">
<path fill-rule="evenodd" clip-rule="evenodd" d="M3 10.9C3 8.65979 3 7.53969 3.43597 6.68404C3.81947 5.93139 4.43139 5.31947 5.18404 4.93597C6.03969 4.5 7.15979 4.5 9.4 4.5H14.6C16.8402 4.5 17.9603 4.5 18.816 4.93597C19.5686 5.31947 20.1805 5.93139 20.564 6.68404C21 7.53969 21 8.65979 21 10.9V12.1C21 14.3402 21 15.4603 20.564 16.316C20.1805 17.0686 19.5686 17.6805 18.816 18.064C17.9603 18.5 16.8402 18.5 14.6 18.5H7.41421C7.149 18.5 6.89464 18.6054 6.70711 18.7929L4.70711 20.7929C4.07714 21.4229 3 20.9767 3 20.0858V18.5V13.5V10.9ZM9 8.5C8.44772 8.5 8 8.94772 8 9.5C8 10.0523 8.44772 10.5 9 10.5H15C15.5523 10.5 16 10.0523 16 9.5C16 8.94772 15.5523 8.5 15 8.5H9ZM9 12.5C8.44772 12.5 8 12.9477 8 13.5C8 14.0523 8.44772 14.5 9 14.5H12C12.5523 14.5 13 14.0523 13 13.5C13 12.9477 12.5523 12.5 12 12.5H9Z" fill="#222222"/>
</svg>
