<svg width="332" height="332" viewBox="0 0 332 332" fill="none" xmlns="http://www.w3.org/2000/svg">
<rect width="332" height="332" fill="white"/>
<path fill-rule="evenodd" clip-rule="evenodd" d="M205.578 68.4278C206.098 49.1206 181.662 16.1608 141.631 21.9035C97.8032 28.1908 66.0016 78.5508 72.3368 134.837L72.5781 136.999C76.4673 172.155 77.7667 199.849 71.047 238.845C66.0228 268 101.75 332.549 180.779 322.338C259.808 312.127 303.217 217.363 265.923 172.649C216.111 112.926 204.44 110.684 205.578 68.4278Z" fill="#64FCD9"/>
<path fill-rule="evenodd" clip-rule="evenodd" d="M158.645 124.717C157.289 121.228 154.721 118.379 152.498 115.367C146.553 107.315 142.867 97.6136 141.964 87.6456C141.482 82.3243 143.312 56.3519 152.992 50.2589C148.213 48.7876 143.312 47.2534 139.392 44.1489C135.472 41.0444 132.698 35.9689 133.753 31.0812C135.35 23.6833 144.958 20.5073 152.125 22.9388C159.292 25.3703 164.447 31.5217 169.217 37.3973C173.779 37.0131 174.911 30.2924 179.077 28.3958C181.887 27.1166 185.154 28.4282 187.878 29.8813C195.806 34.1103 203.231 39.9094 207.423 47.8568C211.615 55.8042 211.978 66.1784 206.636 73.4038C208.582 71.1764 212.614 73.9466 212.384 76.8951C212.153 79.8436 209.549 81.9832 207.062 83.5842C204.575 85.1852 201.797 86.8452 200.814 89.6347C198.341 96.6565 194.411 103.162 189.347 108.619C186.253 111.953 182.701 114.953 180.406 118.88C178.111 122.807 177.344 128.085 180.021 131.762C183.581 127.974 189.716 126.909 194.344 129.275C198.972 131.642 201.7 137.24 200.712 142.343C207.161 142.897 212.955 148.006 214.311 154.335C227.387 167.515 238.068 183.066 245.677 200.001C250.507 210.751 254.094 222.009 257.67 233.239C259.069 237.633 260.485 242.236 259.706 246.781C258.123 256.01 248.111 261.447 238.811 262.54C227.231 263.9 215.166 260.522 205.976 253.348C201.067 268.614 196.167 285.288 201.747 300.322C202.942 303.541 200.552 307.198 197.43 308.628C194.308 310.059 190.715 309.85 187.289 309.612C168.088 308.281 148.886 306.95 129.685 305.619C125.661 305.34 120.16 302.973 121.584 299.199C124.765 290.772 125.673 281.5 124.19 272.615C123.058 278.599 121.095 284.425 118.375 289.874C118.375 289.874 108.79 309.612 99.2316 299.482C93.7838 288.474 93.549 275.585 95.157 263.409C96.7651 251.232 100.089 239.317 101.388 227.104C102.654 215.206 101.981 203.167 103.219 191.266C104.456 179.365 107.877 167.178 116 158.392C122.427 151.442 128.854 144.491 135.281 137.54C137.011 135.668 138.835 133.733 141.228 132.855C143.621 131.977 146.749 132.535 147.979 134.767C149.496 132.88 151.271 130.846 153.68 130.593C156.088 130.341 158.601 133.291 157.055 135.155C159.826 132.638 160.001 128.207 158.645 124.717Z" fill="white"/>
<path fill-rule="evenodd" clip-rule="evenodd" d="M209.885 154.335C222.961 167.516 233.641 183.066 241.251 200.001C246.081 210.751 249.667 222.009 253.243 233.239C254.643 237.633 256.059 242.236 255.279 246.781C253.697 256.01 243.684 261.447 234.384 262.54C222.805 263.9 211.482 259.817 202.292 252.643C197.383 267.909 191.74 285.289 197.321 300.322C197.827 301.684 199.146 303.225 198.584 304.542C197.817 306.338 194.805 307.803 193.004 308.628C192.53 308.846 193.796 304.354 193.741 297.763C193.647 286.546 188.944 247.574 200.014 250.149C227.053 256.437 247.439 255.462 247.867 248.754C250.037 214.7 208.529 148.006 209.885 154.335Z" fill="#E7EAEE"/>
<path fill-rule="evenodd" clip-rule="evenodd" d="M155.547 124.717C154.484 121.982 152.675 119.64 150.872 117.304C150.376 116.661 149.879 116.018 149.399 115.367C143.455 107.315 139.768 97.6136 138.865 87.6456C138.383 82.3243 140.213 56.3519 149.893 50.2589C145.114 48.7876 140.213 47.2534 136.294 44.1489C132.374 41.0444 129.6 35.9689 130.655 31.0812C132.251 23.6833 141.859 20.5073 149.026 22.9388C156.193 25.3703 161.349 31.5217 166.119 37.3973C168.631 37.1857 170.103 35.0518 171.615 32.8604C172.847 31.0732 174.107 29.2478 175.978 28.3958C178.788 27.1166 182.055 28.4282 184.779 29.8813C192.707 34.1103 200.132 39.9094 204.324 47.8568C208.516 55.8042 208.879 66.1784 203.538 73.4038C205.483 71.1764 209.515 73.9466 209.285 76.8951C209.054 79.8436 206.45 81.9832 203.963 83.5842C203.831 83.6694 203.698 83.7548 203.564 83.8405C201.186 85.3651 198.646 86.9936 197.716 89.6347C195.242 96.6565 191.313 103.162 186.248 108.619C185.425 109.506 184.569 110.37 183.713 111.233C181.353 113.615 178.991 115.998 177.307 118.88C175.012 122.807 174.246 128.085 176.923 131.762C180.482 127.974 186.617 126.909 191.245 129.275C195.873 131.642 198.601 137.24 197.614 142.343C204.063 142.897 209.857 148.006 211.213 154.335C224.289 167.515 234.969 183.066 242.578 200.001C247.408 210.751 250.995 222.009 254.571 233.239C255.97 237.633 257.386 242.236 256.607 246.781C255.024 256.01 245.012 261.447 235.712 262.54C224.133 263.9 212.067 260.522 202.877 253.348C197.968 268.614 193.068 285.288 198.648 300.322C199.143 301.652 199.024 303.058 198.494 304.35C194.86 296.454 194.195 287.441 195.167 278.799C196.146 270.087 198.708 261.641 201.258 253.253C201.681 251.862 199.471 251.495 198.031 251.298C195.474 250.947 193.618 248.768 192.018 246.742L185.515 238.504C181.317 233.186 176.478 227.48 169.783 226.45C167.926 226.165 166.047 226.268 164.165 226.372C163.019 226.436 161.871 226.499 160.727 226.475C156.284 226.38 151.879 224.917 148.261 222.336C147.394 221.717 146.513 220.941 146.335 219.89C146.161 218.864 147.089 217.661 148.073 217.922L148.143 217.943C148.12 217.936 148.097 217.929 148.073 217.922C144.939 216.977 141.954 215.537 139.262 213.672C138.766 213.328 138.261 212.947 138.005 212.4C137.453 211.219 138.367 209.772 139.571 209.274C140.776 208.775 142.14 208.957 143.43 209.147C141.892 208.834 140.305 208.502 139.016 207.606C137.727 206.71 136.803 205.092 137.202 203.574C137.601 202.056 139.694 201.116 140.873 202.152C140.359 200.619 141.474 198.92 142.934 198.225C144.394 197.529 146.086 197.584 147.701 197.673C154.475 198.047 161.231 198.77 167.932 199.838L166.95 186.055C166.91 185.492 166.862 184.904 166.557 184.429C166.166 183.822 165.444 183.533 164.767 183.282C151.128 178.229 137.098 174.235 122.842 171.348L126.036 231.175C126.134 233.009 126.645 235.336 128.457 235.635C139.72 237.488 150.767 240.643 161.31 245.017C162.79 245.631 163.873 243.558 164.146 241.978L166.847 226.32C167.223 232.939 166.276 239.63 164.079 245.885C165.759 246.28 166.731 244.06 167 242.355L169.44 226.882C169.855 232.367 169.376 237.919 168.026 243.252C167.716 244.476 167.245 245.83 166.1 246.363C165.131 246.814 163.996 246.521 162.97 246.222L127.296 235.819C126.735 235.655 126.15 235.478 125.734 235.067C125.115 234.457 125.031 233.503 124.983 232.635L122.014 178.689C121.822 175.192 122.013 171.687 122.204 168.19L123.182 150.28C117.44 170.507 116.898 191.947 119.317 212.834C121.736 233.72 127.049 254.158 132.871 274.363C130.421 270.173 128.633 265.598 127.59 260.858C124.743 264.933 121.755 269.578 122.567 274.483C123.932 282.72 123.062 291.317 120.075 299.114C119.394 300.892 120.618 302.943 122.295 303.845C123.972 304.747 125.962 304.792 127.866 304.815L153.215 305.13C152.516 304.243 152.768 302.77 153.723 302.166C153.467 304.921 157.001 306.218 159.742 306.591C172.695 308.353 186.463 310.005 198.368 304.64C197.574 306.352 196.066 307.834 194.332 308.628C191.21 310.059 187.616 309.85 184.191 309.612L126.586 305.619C122.563 305.34 117.061 302.973 118.485 299.199C121.666 290.772 122.575 281.5 121.091 272.615C119.959 278.599 117.996 284.425 115.276 289.874C116.392 280.776 119.442 271.92 124.165 264.065C127.526 258.474 125.59 251.359 123.863 245.067C115.688 215.281 114.42 183.62 120.188 153.275C107.877 162.274 102.738 178.243 101.278 193.422C100.667 199.768 100.566 206.158 100.465 212.545C100.325 221.433 100.185 230.314 98.6707 239.058C97.9791 243.052 97.0033 247 96.0282 250.944C94.4876 257.177 92.9487 263.402 92.5353 269.794C91.8896 279.776 94.0175 289.706 96.133 299.482C90.6852 288.474 90.4503 275.585 92.0584 263.409C92.7964 257.821 93.8959 252.287 94.9951 246.755C96.2912 240.233 97.5869 233.712 98.2897 227.104C98.927 221.112 99.0728 215.084 99.2186 209.056C99.3623 203.114 99.5059 197.173 100.12 191.266C101.358 179.365 104.778 167.178 112.901 158.392L132.182 137.54C133.912 135.668 135.736 133.733 138.129 132.855C140.522 131.977 143.65 132.535 144.881 134.767C146.398 132.88 148.173 130.846 150.581 130.593C152.989 130.341 155.502 133.291 153.956 135.155C156.727 132.638 156.902 128.207 155.547 124.717ZM198.368 304.64C198.387 304.598 198.406 304.557 198.424 304.514C198.448 304.46 198.472 304.405 198.494 304.35L198.527 304.421L198.583 304.542C198.511 304.575 198.44 304.608 198.368 304.64ZM255.291 241.732C255.943 247.168 253.028 252.633 248.704 255.991C244.38 259.348 238.843 260.824 233.381 261.199C221.88 261.989 210.126 258.046 201.427 250.482C208.105 243.638 208.477 231.615 202.237 224.371C207.606 221.873 213.095 219.341 218.981 218.694C224.867 218.047 231.326 219.609 235.152 224.128C235.806 224.9 236.372 225.742 236.937 226.584C237.631 227.618 238.325 228.65 239.18 229.552C238.439 224.651 234.619 220.558 230.047 218.646C225.474 216.734 220.272 216.777 215.434 217.853C210.596 218.928 206.039 220.979 201.521 223.017C200.662 223.405 200.019 222.168 199.879 221.236L199.07 215.836C198.736 213.61 198.772 210.697 200.869 209.88C202.444 209.266 202.031 206.863 200.988 205.532C200.814 205.309 200.627 205.085 200.438 204.858C199.499 203.734 198.514 202.553 198.762 201.168C201.405 186.455 204.062 171.684 208.765 157.496C208.91 157.056 209.088 156.58 209.488 156.347C210.03 156.033 210.714 156.305 211.259 156.613C215.664 159.102 218.297 163.55 220.924 167.988C221.851 169.554 222.777 171.119 223.781 172.597C225.329 174.876 227.103 176.987 228.877 179.098C230.194 180.665 231.512 182.233 232.738 183.871C240.295 193.966 244.002 206.108 247.717 218.276L247.717 218.276L247.717 218.276L247.717 218.276L247.717 218.276L247.717 218.276L247.717 218.277L247.717 218.277L247.717 218.277L247.717 218.277L247.717 218.277L247.717 218.277L247.717 218.277L247.717 218.277L247.717 218.278C249.412 223.827 251.108 229.383 253.172 234.751L253.246 234.945C253.306 235.099 253.365 235.252 253.424 235.405C254.223 237.466 255.028 239.542 255.291 241.732ZM196.084 209.96C197.163 209.95 198.292 209.927 199.236 209.406C200.18 208.885 200.847 207.692 200.41 206.706C199.996 205.771 198.801 205.433 197.786 205.566C197.198 205.643 196.636 205.835 196.073 206.027L196.073 206.028L196.073 206.028C195.664 206.167 195.255 206.307 194.836 206.403C192.746 206.881 190.613 206.251 188.492 205.625C186.196 204.947 183.913 204.272 181.713 205.012C183.136 202.657 183.042 199.744 182.953 196.976L182.944 196.684L182.939 196.544C182.488 181.846 185.749 167.049 192.337 153.904C189.905 155.643 188.16 158.317 187.546 161.243C187.473 161.591 187.415 161.943 187.357 162.296C187.207 163.202 187.058 164.107 186.658 164.927C185.038 168.252 180.463 168.498 176.78 168.166C173.761 167.893 170.598 167.497 168.14 165.725C166.906 164.836 165.914 163.642 164.926 162.456C163.612 160.876 162.307 159.307 160.458 158.485C157.391 157.12 154.114 158.257 150.797 159.408C147.801 160.447 144.774 161.497 141.842 160.724C140.19 160.289 139.047 162.317 138.551 163.952L136.39 171.077C135.382 167.182 136.614 162.789 139.499 159.986C138.263 159.176 138.596 157.512 138.925 155.864C139.259 154.196 139.589 152.544 138.283 151.814C134.34 149.608 133.56 144.369 133.223 139.864C128.207 141.716 125.345 147.139 124.462 152.413C123.943 155.522 123.949 158.677 123.955 161.836C123.959 164.036 123.963 166.238 123.789 168.426C138.914 171.387 153.822 175.455 168.355 180.585C169.245 180.899 170.179 181.249 170.773 181.983C171.411 182.771 171.531 183.847 171.624 184.857C172.099 189.967 172.547 195.289 170.718 200.085L170.734 185.14C170.735 184.313 170.593 183.277 169.806 183.023C168.581 182.629 168.006 184.501 168.107 185.784L168.982 196.893C169.102 198.414 169.323 200.127 170.547 201.038L148.558 198.829C146.274 198.599 143.536 198.561 142.2 200.428C142.42 202.214 144.555 202.964 146.317 203.331L160.314 206.249C155.934 207.155 151.33 206.343 147.187 204.66C146.872 204.532 146.559 204.399 146.246 204.266L146.243 204.265C144.932 203.709 143.615 203.151 142.208 202.965C140.465 202.735 138.495 203.21 137.482 204.648C143.745 208.789 151.023 211.382 158.494 212.134C158.448 212.945 157.367 213.188 156.557 213.129C154.45 212.975 152.424 212.357 150.396 211.739C149.454 211.451 148.512 211.164 147.562 210.923C144.563 210.163 141.202 209.911 138.54 211.487C144.531 216.374 152.43 218.072 160.005 219.62L147.463 219.353C149.681 223.3 154.658 224.754 159.179 224.993C160.516 225.064 161.865 225.062 163.213 225.061C166.425 225.056 169.634 225.052 172.669 226.029C178.18 227.801 182.171 232.477 185.857 236.94L192.965 245.546C193.935 246.72 195.781 246.85 197.151 246.186C198.521 245.523 199.487 244.244 200.245 242.924C201.75 240.301 202.645 237.221 202.159 234.236C201.673 231.252 199.614 228.431 196.712 227.581C191.727 226.119 188.189 221.689 185.743 217.106C184.903 215.534 184.149 213.911 183.395 212.29L183.395 212.29L183.395 212.289L183.395 212.289L183.395 212.289L183.395 212.289L183.395 212.289L183.395 212.289L183.395 212.289L183.395 212.288L183.395 212.288L183.395 212.288L183.395 212.288L183.394 212.288C181.952 209.185 180.511 206.085 178.478 203.346C177.869 202.525 177.205 201.733 176.541 200.941C174.901 198.985 173.261 197.029 172.449 194.635C176.625 198.676 180.17 203.368 182.914 208.49C183.212 209.045 183.54 209.645 184.114 209.903C184.482 210.068 184.901 210.067 185.304 210.063L196.084 209.96ZM194.935 84.6606C195.944 84.5293 196.742 83.7727 197.464 83.0551L200.975 79.5628C194.489 95.6349 185.226 111.174 171.185 121.334C168.334 123.397 164.945 125.297 161.481 124.678C159.667 124.354 158.039 123.359 156.596 122.212C153.591 119.824 151.213 116.732 149.179 113.476C143.438 104.285 140.251 93.4823 140.299 82.6451C140.347 71.8078 143.662 60.9755 149.864 52.0887C150.078 51.7831 150.317 51.4625 150.669 51.3408C151.026 51.2173 151.417 51.3268 151.779 51.4368C164.779 55.3886 177.655 59.7491 190.382 64.5099C192.397 65.2636 193.235 67.6346 193.601 69.7542C194.356 74.1198 194.155 78.6478 193.016 82.9294C192.755 83.9128 193.926 84.7919 194.935 84.6606ZM186.453 52.1665C187.986 52.1802 189.055 54.231 188.189 55.4961C187.322 56.7612 185.024 56.5049 184.457 55.0799C183.821 53.4816 182.182 52.614 180.636 51.7956L180.635 51.7953L180.63 51.7929C180.468 51.7069 180.307 51.6215 180.148 51.5359C174.95 48.7366 170.955 44.2914 166.979 39.8678C165.936 38.7073 164.894 37.5483 163.832 36.4208C161.815 34.2789 159.699 32.2298 157.494 30.282C155.076 28.1458 152.509 26.107 149.548 24.8252C146.587 23.5434 143.163 23.0763 140.115 24.1368C141.488 24.2064 142.564 25.7708 142.137 27.0776C141.71 28.3843 139.919 29.0127 138.769 28.2589C137.62 27.505 137.483 25.6115 138.511 24.6995C135.395 25.6221 132.776 28.0869 131.666 31.1418C131.448 31.7442 131.285 32.4104 131.485 33.0192C131.598 33.3625 131.819 33.6673 132.038 33.9687C132.347 34.3945 132.651 34.8133 132.637 35.3235C132.525 39.4077 136.524 43.1055 140.586 42.6746C141.382 42.5902 141.703 43.3838 142.035 44.207C142.194 44.5998 142.356 44.9993 142.573 45.3135C142.96 45.8747 143.608 46.1874 144.229 46.4712C150.535 49.3556 157.06 51.7609 163.729 53.6594C164.502 53.8794 165.56 53.971 165.888 53.2373C166.328 52.2528 167.606 51.7416 168.603 52.1513C169.601 52.5611 170.151 53.823 169.771 54.8324C169.601 55.2848 170.159 55.6514 170.613 55.8157L193.333 64.0303C192.914 62.3488 195.05 60.6775 196.581 61.4888C198.113 62.3001 197.93 65.0061 196.303 65.6037L204.607 69.7908L206.098 57.6049C206.167 57.0356 205.94 56.189 205.39 56.3519C204.371 56.6536 203.17 56.0775 202.768 55.094C202.365 54.1105 202.818 52.8578 203.757 52.359C204.479 51.975 204.748 51.0288 204.588 50.2267C204.428 49.4246 203.934 48.7349 203.441 48.0823C198.108 41.023 191.353 35.013 183.605 30.7418C181.528 29.5971 179.011 28.5656 176.865 29.5742C175.623 30.1581 174.788 31.3072 173.971 32.4306C173.841 32.6093 173.711 32.7874 173.581 32.9625C171.947 35.1528 169.925 37.053 167.638 38.5483L174.878 45.9133C174.279 44.6207 175.19 42.8793 176.593 42.6343C177.997 42.3894 179.444 43.7191 179.319 45.1381C179.193 46.5571 177.535 47.6123 176.197 47.125C179.22 49.5675 182.566 52.1319 186.453 52.1665ZM195.668 151.926C196.768 152.006 197.885 151.346 198.345 150.343C198.804 149.34 198.575 148.062 197.795 147.282C196.821 146.307 197.949 144.486 199.32 144.344C200.691 144.202 201.937 145.078 203.036 145.91L208.333 149.92C208.975 150.406 209.695 151.133 209.415 151.888C203.365 168.157 199.388 185.195 197.611 202.461C197.467 203.861 196.118 204.891 194.733 205.142C193.349 205.393 191.934 205.042 190.571 204.693L185.698 203.446C185.367 203.361 185.02 203.268 184.774 203.031C184.422 202.692 184.368 202.157 184.339 201.669C183.349 185.043 186.769 168.173 194.156 153.245C194.472 152.607 194.958 151.874 195.668 151.926ZM184.934 141.497C183.616 140.502 183.918 138.074 185.44 137.432C181.672 137.758 178.235 139.437 174.794 141.118C171.475 142.739 168.153 144.362 164.529 144.773C166.707 146.251 167.735 149.083 167.439 151.699C167.144 154.314 165.679 156.695 163.776 158.513C165.406 161.634 168.098 164.189 171.3 165.653C172.429 166.169 173.722 166.554 174.897 166.156C175.154 166.069 175.427 165.953 175.706 165.835C176.721 165.405 177.796 164.949 178.305 165.795C179.26 167.381 181.699 167.017 183.28 166.055C184.361 165.398 185.366 164.508 185.811 163.324C186.256 162.14 185.992 160.628 184.952 159.909C184.089 159.311 183.798 158.02 184.322 157.11C184.847 156.2 186.109 155.804 187.059 156.252C187.889 156.642 188.666 155.669 189.162 154.897C190.328 153.08 192.047 151.623 194.03 150.769C193.236 149.602 193.347 147.899 194.287 146.846C191.86 145.072 189.913 142.648 188.704 139.895C188.505 141.535 186.253 142.492 184.934 141.497ZM152.794 135.147C152.764 135.343 152.734 135.539 152.71 135.733C152.601 136.639 152.699 137.693 153.425 138.246C156.196 134.887 157.825 130.603 157.985 126.252C158.017 125.383 159.335 125.509 160.156 125.795C162.58 126.64 165.302 126.218 167.654 125.188C170.006 124.158 172.058 122.563 174.083 120.985C173.49 124.93 174.007 129.036 175.557 132.711L167.552 138.722C167.236 138.96 166.939 139.505 167.302 139.663C170.335 138.68 172.911 136.68 175.433 134.721L175.67 134.537C178.268 132.521 180.988 130.498 184.171 129.673C187.355 128.849 191.144 129.499 193.173 132.088C194.173 133.364 194.651 134.96 195.109 136.515L196.526 141.331C196.834 142.375 197.136 143.526 196.693 144.52C196.251 145.514 194.694 146.004 194.073 145.11L191.17 140.934C189.788 138.945 188.219 136.819 185.884 136.174C183.337 135.469 180.71 136.742 178.341 137.914C174.19 139.969 169.941 141.823 165.612 143.469C164.281 143.975 162.805 143.481 161.36 142.998C159.716 142.448 158.114 141.911 156.814 142.88C156.332 143.24 155.65 143.043 155.094 142.814C151.27 141.234 147.844 138.7 145.214 135.506L150.721 131.929C151.486 131.432 152.551 132.145 152.81 133.02C153.014 133.707 152.904 134.43 152.794 135.147L152.794 135.147ZM156.843 156.485C154.337 154.436 153.126 150.924 153.836 147.766C154.017 146.964 153.183 146.342 152.508 145.871C151.834 145.399 151.166 144.481 151.687 143.843C151.967 143.5 151.585 143.02 151.235 142.748L144.497 137.525C143.688 136.898 142.855 136.241 142.388 135.331C141.545 133.686 139.293 132.944 137.637 133.765C135.284 134.931 134.956 138.093 134.943 140.718C134.94 141.337 135.114 142.159 135.732 142.194C137.311 142.283 138.059 144.735 136.798 145.69C135.563 146.626 136.445 148.654 137.673 149.598C137.941 149.804 138.227 150.001 138.516 150.2L138.516 150.2C139.549 150.911 140.601 151.634 140.87 152.815C141.07 153.694 140.774 154.626 140.484 155.536C140.122 156.673 139.771 157.778 140.415 158.703C141.204 159.835 142.887 159.725 144.243 159.471C148.487 158.675 152.693 157.678 156.843 156.485ZM186.786 211.387C189.84 211.141 192.915 211.147 195.968 211.405C196.224 211.427 196.494 211.456 196.7 211.61C197.016 211.847 197.073 212.291 197.109 212.685C197.401 215.92 198.015 219.126 198.94 222.24C198.797 222.622 198.388 222.715 197.964 222.811C197.687 222.874 197.404 222.938 197.182 223.085C196.466 223.561 196.675 224.699 197.206 225.374C197.394 225.613 197.612 225.831 197.83 226.048C198.227 226.446 198.623 226.842 198.829 227.357C192.279 225.306 187.505 219.44 184.954 213.068C184.799 212.682 184.65 212.252 184.791 211.86C184.931 211.469 185.509 211.238 185.774 211.559C185.878 211.685 185.905 211.856 185.927 212.019L186.373 215.203C186.432 215.619 187.113 215.623 187.344 215.272C187.574 214.921 187.489 214.459 187.395 214.049L186.786 211.387ZM165.555 148.749C164.675 146.213 162.305 144.259 159.648 143.879C158.676 143.74 157.58 143.839 156.884 144.532C155.354 146.055 154.75 148.378 155.109 150.507C155.468 152.635 156.717 154.557 158.365 155.951C159.597 156.994 161.333 157.783 162.795 157.101C163.231 156.897 163.602 156.578 163.934 156.23C165.784 154.286 166.435 151.284 165.555 148.749ZM194.748 81.8786C195.471 76.8506 196.143 71.4291 193.769 66.9383C193.604 66.6258 193.433 66.2145 193.67 65.9518L201.122 69.644C201.713 69.9368 202.412 70.5035 202.137 71.103C201.816 71.803 201.755 72.5766 201.694 73.3513L201.694 73.3516C201.669 73.6788 201.643 74.0061 201.598 74.3282C201.323 76.2758 200.311 78.0598 199.027 79.55C197.743 81.0401 196.19 82.2703 194.648 83.4906C194.595 82.9534 194.672 82.4129 194.748 81.8786ZM202.252 226.276C201.396 225.072 200.254 223.893 198.784 223.747C198.218 223.69 197.455 224.265 197.867 224.659C201.425 228.061 203.808 232.929 203.367 237.832C202.927 242.734 199.228 247.414 194.363 248.16C195.802 249.869 198.547 250.002 200.498 248.913C202.448 247.823 203.703 245.793 204.494 243.704C206.653 238.001 205.784 231.247 202.252 226.276ZM125.881 169.8C131.279 170.646 136.546 172.163 141.796 173.677L156.101 177.802C160.455 179.058 164.858 180.334 168.785 182.596C166.922 182.528 165.112 181.996 163.329 181.451C160.179 180.488 157.039 179.471 153.898 178.454L153.898 178.454L153.896 178.453L153.896 178.453C143.705 175.152 133.507 171.849 122.919 170.379C123.596 169.569 124.839 169.637 125.881 169.8ZM204.098 74.7443C203.279 75.4803 202.887 76.5784 202.652 77.6543C202.583 77.9704 202.524 78.2895 202.466 78.6085C202.325 79.3758 202.184 80.1428 201.897 80.866C201.85 80.9847 201.799 81.1045 201.748 81.2251C201.49 81.8298 201.223 82.4552 201.416 83.0657C204.506 82.8672 207.301 80.3779 207.855 77.3316C208.041 76.3091 207.93 75.1083 207.121 74.4567C206.263 73.7662 204.918 74.0083 204.098 74.7443ZM188.279 34.7513C188.634 35.7603 188.098 36.9988 187.118 37.4294C186.139 37.86 184.864 37.4182 184.36 36.4741C183.806 35.4347 184.312 33.9738 185.39 33.4998C186.469 33.0257 187.887 33.6404 188.279 34.7513ZM151.497 35.7036C151.558 34.7862 150.982 33.8607 150.132 33.5105C149.05 33.0649 147.658 33.6575 147.23 34.7465C146.802 35.8356 147.416 37.2171 148.512 37.628C149.799 38.1105 151.405 37.0746 151.497 35.7036ZM193.347 44.9454C193.378 46.1061 194.443 47.1407 195.604 47.1375C196.835 47.1342 197.933 45.9499 197.843 44.7216C197.758 43.5636 196.645 42.5801 195.486 42.6379C194.326 42.6956 193.317 43.7847 193.347 44.9454ZM160.248 46.2932C159.406 47.3453 157.568 47.348 156.723 46.2983C155.878 45.2487 156.273 43.4539 157.481 42.8561C158.689 42.2583 160.355 43.0325 160.678 44.3409C160.843 45.0111 160.679 45.7543 160.248 46.2932ZM153.42 63.83C152.708 64.9432 152.556 66.3962 153.022 67.6327C153.195 68.0913 153.453 68.5255 153.819 68.8512C154.994 69.8962 157.002 69.4547 157.991 68.2323C158.98 67.0099 159.116 65.2852 158.824 63.7402C158.708 63.1243 158.494 62.4668 157.968 62.1252C157.602 61.8875 157.142 61.8447 156.707 61.8758C155.389 61.9702 154.133 62.7168 153.42 63.83ZM177.077 75.2227C176.689 74.8259 176.433 74.3143 176.274 73.7824C175.684 71.8101 176.514 69.4999 178.225 68.3543C178.998 67.8362 179.996 67.5484 180.871 67.8655C181.944 68.2542 182.534 69.4253 182.738 70.5485C183.029 72.1559 182.679 73.9576 181.495 75.0836C180.312 76.2097 178.22 76.3902 177.077 75.2227ZM147.439 97.3962C147.479 96.403 147.56 95.4115 147.681 94.4251C147.723 94.0832 148.019 93.7894 148.361 93.7496C148.52 96.1826 148.594 98.621 148.583 101.059C147.507 100.27 147.387 98.7293 147.439 97.3962ZM187.411 86.8343C187.087 85.3552 185.976 84.0725 184.559 83.5412C184.322 83.4523 184.332 83.073 184.532 82.9168C184.731 82.7607 185.015 82.7764 185.261 82.8364C186.609 83.1657 187.443 84.4885 188.059 85.7319C188.222 86.0609 188.383 86.4443 188.239 86.7822C188.096 87.1202 187.489 87.1929 187.411 86.8343ZM162.76 302.391C162.618 302.071 162.258 301.919 161.929 301.799C156.78 299.922 151.313 298.919 145.832 298.848C145.051 298.838 144.139 298.913 143.709 299.565C144.127 299.917 144.728 299.917 145.275 299.908C151.077 299.821 156.895 300.898 162.281 303.057C162.606 303.188 162.902 302.711 162.76 302.391ZM165.612 78.0224C165.302 78.2777 164.96 78.4903 164.619 78.7028L164.619 78.7029C164.233 78.9428 163.847 79.1825 163.508 79.4833C162.869 80.0506 162.407 80.968 162.737 81.7562C163.146 82.7298 164.457 82.9138 165.496 82.7263C165.523 82.7216 165.549 82.7167 165.576 82.7117L165.627 82.7021C165.956 82.6401 166.291 82.5768 166.611 82.6644C166.973 82.7636 167.292 83.1453 167.168 83.4998C167.08 83.7487 166.819 83.8875 166.574 83.9836C165.051 84.579 163.151 84.3574 162.022 83.1758C160.893 81.9943 160.864 79.8305 162.154 78.8269L167.194 74.906C167.143 76.1048 166.538 77.2595 165.612 78.0224ZM184.912 88.1438C185.225 89.9142 184.771 91.7336 184.129 93.4127C181.362 100.642 174.829 106.308 167.281 108.025C164.243 108.716 160.892 108.756 158.189 107.208C155.486 105.66 153.748 102.177 154.933 99.2965C156.325 95.9152 160.632 94.967 164.288 94.8903C164.608 94.8836 164.932 94.8787 165.258 94.8739C168.65 94.8235 172.271 94.7698 174.726 92.511C175.6 91.7073 176.23 90.696 176.862 89.6827L176.862 89.6826C177.394 88.8286 177.927 87.9732 178.607 87.2396C180.095 85.6355 183.009 84.869 184.316 86.6231C184.645 87.0636 184.816 87.6027 184.912 88.1438ZM183.359 90.8417C183.736 89.4009 183.57 87.328 182.097 87.1103C181.549 87.0294 181.003 87.2747 180.547 87.5904C179.415 88.3758 178.69 89.559 177.96 90.7488C177.381 91.693 176.8 92.6413 176.01 93.3981C173.949 95.3745 170.866 95.7241 168.022 95.9705L162.554 96.4439C161.16 96.5647 159.715 96.7007 158.501 97.3981C156.221 98.708 155.431 102.057 156.884 104.248C158.455 106.617 161.732 107.132 164.562 106.858C173.285 106.014 181.141 99.3204 183.359 90.8417ZM186.474 201.594C186.178 201.628 185.869 201.544 185.631 201.365C185.469 201.243 185.34 201.08 185.259 200.895C184.995 200.293 185.351 199.502 185.976 199.299C186.601 199.097 187.353 199.529 187.492 200.171C187.632 200.813 187.127 201.519 186.474 201.594ZM196.587 201.675C196.372 201.486 196.083 201.383 195.797 201.391C195.092 201.412 194.526 202.208 194.737 202.88C194.948 203.553 195.866 203.883 196.457 203.499C197.048 203.114 197.117 202.14 196.587 201.675ZM175.327 150.453C174.594 149.611 174.657 148.195 175.461 147.42C176.265 146.645 177.682 146.634 178.497 147.397C179.368 148.212 179.38 149.767 178.521 150.595C177.663 151.422 176.109 151.354 175.327 150.453ZM165.744 157.481C165.576 157.931 165.562 158.437 165.705 158.895C166.111 160.199 167.914 160.82 169.037 160.042C170.16 159.264 170.212 157.358 169.134 156.52C168.056 155.681 166.222 156.201 165.744 157.481ZM146.354 154.164C146.102 154.999 145.302 155.639 144.432 155.702C143.148 155.796 141.948 154.521 142.119 153.245C142.29 151.969 143.783 151.055 144.997 151.484C146.04 151.852 146.675 153.106 146.354 154.164Z" fill="#00160A"/>
</svg>
